<svg width="183" height="50" viewBox="0 0 183 50" fill="none" xmlns="http://www.w3.org/2000/svg">
<g clip-path="url(#clip0)">
<path d="M15.0715 0.0521785C13.3426 0.368874 12.0663 1.51804 11.2244 3.5449C10.9891 4.11497 8.04716 12.132 1.97327 28.7632C1.29436 30.618 1.16764 31.0525 1.2491 31.2153C1.31247 31.36 1.54782 31.4959 1.96421 31.6586C2.29915 31.7854 3.53926 32.2648 4.70698 32.7173C6.35445 33.3598 6.87042 33.5226 7.01525 33.4593C7.15101 33.3959 7.38638 32.8621 7.93855 31.3511C8.34588 30.2381 8.87089 28.8084 9.0972 28.1659L9.52265 27.0169L16.0944 27.0349L22.6571 27.0621L23.7977 30.2198C24.6757 32.6358 24.9925 33.405 25.1284 33.4593C25.2731 33.5226 25.9431 33.2965 28.0611 32.473C29.6815 31.8486 30.8493 31.342 30.9035 31.2424C30.9849 31.1249 30.9215 30.8534 30.6229 30.021C30.1251 28.6002 21.5166 5.0922 21.1726 4.16926C20.0683 1.30087 18.6924 0.115517 16.3569 0.00693526C15.8953 -0.0111628 15.325 0.00693526 15.0715 0.0521785ZM18.3574 14.5931C19.5523 18.1854 20.5028 21.1443 20.4756 21.1714C20.4484 21.1985 18.457 21.2257 16.0491 21.2257C12.6094 21.2257 11.677 21.1985 11.677 21.1171C11.677 20.8547 16.0491 7.91533 16.1125 7.98773C16.1487 8.02392 17.1626 11.0009 18.3574 14.5931Z" fill="#FF2A2A"/>
<path d="M122.383 17.0635C121.514 17.1449 119.867 17.4435 119.45 17.6064L119.224 17.6878L119.197 23.3704L119.17 29.0528L118.925 29.5051C118.798 29.7494 118.563 30.1024 118.418 30.2743L118.147 30.591L118.509 31.3058C118.862 32.0026 118.871 32.0117 119.151 31.9574C119.559 31.8759 120.482 31.4325 120.799 31.1519C120.953 31.0254 121.188 30.7177 121.324 30.4642C121.804 29.5958 121.84 29.1885 121.84 24.2841V19.7871L122.048 19.6695C122.329 19.5156 124.393 19.4614 125.035 19.5971L125.551 19.6966V25.8044V31.9031H127H128.448L128.43 24.7818L128.403 17.6607L127.543 17.4526C125.932 17.0725 123.976 16.9187 122.383 17.0635Z" fill="#FF2A2A"/>
<path d="M54.3304 17.1627C54.0589 17.2079 53.7783 17.2803 53.6967 17.3256C53.6154 17.3708 52.5924 20.203 51.126 24.4378C49.7953 28.3104 48.6729 31.5679 48.6458 31.6855L48.5913 31.9027H50.0488H51.4971L51.9135 30.5636C52.1488 29.8307 52.348 29.1791 52.366 29.1159C52.4023 29.0253 52.9817 29.0072 55.0546 29.0253L57.6978 29.0524L58.1142 30.4549L58.5216 31.8574L60.0422 31.8846C60.8751 31.8937 61.5539 31.8755 61.5539 31.8394C61.5539 31.7942 60.4948 28.5275 59.2095 24.5734L56.8649 17.3799L56.5572 17.2803C56.1227 17.1355 54.8825 17.0632 54.3304 17.1627ZM55.2538 20.4473C55.2898 20.6102 55.6791 22.0398 56.1227 23.6052C56.5754 25.1796 56.9374 26.4828 56.9374 26.5097C56.9374 26.5369 56.0865 26.5641 55.0546 26.5641H53.1627L53.9502 23.8677C54.3847 22.3927 54.8102 20.945 54.8916 20.6554C54.9732 20.3749 55.0726 20.1397 55.1179 20.1397C55.1631 20.1397 55.2264 20.2754 55.2538 20.4473Z" fill="#FF2A2A"/>
<path d="M90.7917 19.3707C90.7917 20.5922 90.7737 21.5876 90.7554 21.5876C90.7374 21.5876 90.5653 21.5242 90.3755 21.4428C89.8414 21.2166 88.203 21.2347 87.4517 21.479C85.6049 22.0762 84.6997 23.5601 84.573 26.2114C84.4283 29.1432 85.3425 31.1247 87.1528 31.8215C87.9224 32.111 89.3434 32.1018 90.1854 31.7852L90.7917 31.5592V33.4502V35.3413H92.1044H93.4169V33.4502V31.5592L93.9872 31.7671C96.0238 32.5 97.9609 31.8124 98.9205 30.0208C99.4364 29.0617 99.5993 28.2564 99.5993 26.6548C99.5993 24.8089 99.3641 23.8044 98.6851 22.8182C98.332 22.3024 97.4813 21.7143 96.7843 21.4881C95.9967 21.2347 94.3763 21.2076 93.8333 21.4338C93.6432 21.5242 93.4711 21.5876 93.4531 21.5876C93.4349 21.5876 93.4169 20.5922 93.4169 19.3707V17.1538H92.1044H90.7917V19.3707ZM90.4297 23.6324L90.7917 23.7774V26.7092V29.6318L90.4115 29.7402C90.2034 29.7945 89.6964 29.8217 89.2982 29.8037C88.6465 29.7765 88.5198 29.7402 88.221 29.5142C87.4968 28.9621 87.1437 27.4872 87.3429 25.8585C87.4968 24.6007 87.8499 23.895 88.4836 23.6144C88.8638 23.4425 89.9861 23.4516 90.4297 23.6324ZM95.6528 23.5872C96.4583 23.895 96.8656 24.863 96.8748 26.519C96.8748 27.6772 96.748 28.3105 96.3769 28.9258C95.9785 29.5955 95.5623 29.8217 94.7294 29.8217C94.3854 29.8217 93.9418 29.7765 93.7609 29.7222L93.4169 29.6318V26.7092V23.7774L93.7609 23.6416C94.1499 23.4697 95.2726 23.4425 95.6528 23.5872Z" fill="#FF2A2A"/>
<path d="M66.3058 21.3073C65.5183 21.3887 64.7761 21.5244 63.9795 21.7416L63.4725 21.8773L63.4363 25.4244C63.4092 28.8808 63.4001 28.9715 63.2011 29.4149C63.0834 29.6591 62.848 30.0119 62.6761 30.1929L62.3682 30.5096L62.7032 31.2607C63.0472 32.0025 63.0472 32.0025 63.3458 31.9573C63.7894 31.8941 64.5498 31.5139 64.9391 31.1792C65.1201 31.0162 65.3736 30.6815 65.5003 30.4464C65.9165 29.6137 65.989 29.0438 66.0524 26.284L66.1066 23.687L66.514 23.6327C67.0391 23.5603 68.0257 23.5603 68.5597 23.6327L68.9762 23.6961V27.795V31.903H70.334H71.6919V26.8902V21.8773L70.9043 21.6873C69.2388 21.3073 67.6817 21.1806 66.3058 21.3073Z" fill="#FF2A2A"/>
<path d="M104.777 21.3159C104.325 21.352 103.709 21.4335 103.419 21.4968C102.496 21.6778 102.559 21.5511 102.786 22.655C102.958 23.5056 103.003 23.6232 103.157 23.596C103.247 23.5871 103.953 23.5508 104.705 23.5145C106.805 23.4333 107.049 23.578 107.149 24.9173L107.203 25.5867L106.669 25.5054C105.836 25.3876 104.669 25.4511 104.008 25.6501C102.406 26.1387 101.609 27.2335 101.618 28.9709C101.618 29.7129 101.645 29.8485 101.908 30.3915C102.722 32.0474 104.696 32.5723 106.886 31.7216C107.275 31.5677 107.665 31.3869 107.755 31.3145C107.918 31.1967 107.963 31.215 108.362 31.586C108.606 31.8122 108.851 31.9931 108.923 31.9931C108.986 31.9931 109.412 31.7396 109.855 31.423L110.679 30.862L110.335 30.2467C109.873 29.378 109.801 28.9075 109.801 26.5278C109.801 25.3787 109.756 24.139 109.71 23.768C109.493 22.094 108.579 21.3973 106.497 21.2887C105.999 21.2616 105.221 21.2706 104.777 21.3159ZM107.049 27.2698C107.122 27.3061 107.167 27.7675 107.185 28.5367L107.221 29.7401L106.868 29.8305C106.669 29.8848 106.162 29.912 105.737 29.8938C105.103 29.8757 104.904 29.8305 104.669 29.6586C104.315 29.4052 104.144 28.8805 104.234 28.3104C104.306 27.8218 104.578 27.5049 105.049 27.333C105.429 27.1974 106.877 27.1522 107.049 27.2698Z" fill="#FF2A2A"/>
<path d="M145.285 21.3159C144.579 21.4064 143.963 21.6055 143.294 21.9584C142.388 22.447 142.407 22.3656 142.986 23.207C143.266 23.6143 143.52 23.931 143.556 23.9129C144.434 23.4424 144.932 23.2704 145.611 23.2341C146.453 23.1889 146.815 23.3157 147.104 23.7862C147.349 24.1752 147.295 24.8449 146.996 25.1796C146.661 25.5417 146.272 25.6593 145.421 25.6593H144.651V26.6093V27.5595H145.448C146.426 27.5595 146.806 27.659 147.15 28.0209C147.376 28.2561 147.412 28.3647 147.412 28.8262C147.412 29.2243 147.367 29.4234 147.222 29.6045C146.869 30.0839 146.589 30.2198 145.892 30.2558C145.14 30.2921 144.425 30.1383 143.511 29.731C143.176 29.5773 142.895 29.4686 142.886 29.4778C142.787 29.6405 142.189 31.0974 142.216 31.1246C142.425 31.3056 143.103 31.6494 143.637 31.8394C145.267 32.4275 147.448 32.3008 148.68 31.5408C149.114 31.2693 149.711 30.5908 149.92 30.1202C150.155 29.5862 150.227 28.7901 150.083 28.202C149.92 27.5323 149.558 27.0889 148.906 26.7631L148.354 26.4826L148.698 26.3017C149.467 25.9127 149.829 25.2883 149.884 24.2387C149.92 23.5691 149.902 23.4424 149.684 22.999C149.177 21.9674 148.118 21.3974 146.507 21.2797C146.163 21.2616 145.611 21.2707 145.285 21.3159Z" fill="#FF2A2A"/>
<path d="M177.148 21.4066C176.578 21.4518 175.971 21.5151 175.818 21.5423L175.519 21.5966V26.7452V31.9027H176.832H178.144V27.7947V23.6776L178.334 23.6235C178.443 23.5872 179.375 23.5692 180.398 23.5872L182.263 23.6235L182.281 23.3973C182.29 23.2706 182.317 22.8181 182.326 22.3928L182.353 21.6056L181.448 21.5061C180.099 21.3613 178.316 21.3161 177.148 21.4066Z" fill="#FF2A2A"/>
<path d="M74.6069 26.4467L74.634 31.3871L75.2677 31.6042C76.2544 31.93 77.3497 32.111 78.4812 32.111C80.1196 32.1199 81.1424 31.7852 81.9482 30.98C83.3512 29.5775 83.3329 26.8085 81.8937 25.5236C80.9523 24.6731 79.2054 24.3926 77.5127 24.8179L77.3043 24.8631V23.18V21.4971H75.9465H74.5889L74.6069 26.4467ZM79.4768 26.9985C79.9747 27.2428 80.2281 27.8129 80.1739 28.5729C80.1014 29.6859 79.6578 30.0932 78.5174 30.0932C78.1644 30.0932 77.7388 30.0661 77.5849 30.0389L77.3043 29.9754L77.3226 28.4825L77.3497 26.9804L77.576 26.9172C78.0467 26.7814 79.1509 26.8266 79.4768 26.9985Z" fill="#FF2A2A"/>
<path d="M131.345 26.7V31.9028L132.82 31.8939H134.287L135.355 29.7042C135.934 28.5007 136.595 27.1071 136.812 26.6094C137.319 25.4512 137.518 25.0261 137.582 25.0261C137.609 25.0261 137.618 26.5733 137.6 28.4644L137.573 31.9028H138.894H140.216V26.7V21.4971H138.777H137.346L135.989 24.3653C135.237 25.9489 134.495 27.5416 134.332 27.8943C134.169 28.2562 134.006 28.5548 133.979 28.5548C133.952 28.5548 133.943 26.9715 133.961 25.0261L133.988 21.4971H132.666H131.345V26.7Z" fill="#FF2A2A"/>
<path d="M152.526 26.7V31.9028L154.002 31.8939H155.468L156.536 29.7042C157.116 28.5007 157.777 27.1071 157.994 26.6094C158.501 25.4512 158.7 25.0261 158.763 25.0261C158.79 25.0261 158.799 26.5733 158.781 28.4644L158.754 31.9028H160.076H161.397V26.7V21.4971H159.958H158.528L157.17 24.3653C156.419 25.9489 155.676 27.5416 155.514 27.8943C155.351 28.2562 155.188 28.5548 155.16 28.5548C155.133 28.5548 155.124 26.9715 155.142 25.0261L155.17 21.4971H153.848H152.526V26.7Z" fill="#FF2A2A"/>
<path d="M164.204 26.7V31.9028H165.516H166.829V29.7765V27.65H168.413H169.997V29.7765V31.9028H171.355H172.713V26.7V21.4971H171.355H169.997V23.4425V25.3879H168.413H166.829V23.4425V21.4971H165.516H164.204V26.7Z" fill="#FF2A2A"/>
<path d="M113.92 25.1072C113.512 25.2068 113.295 25.3515 112.987 25.6953C112.172 26.6184 112.716 28.1024 113.965 28.3828C115.123 28.6453 116.228 27.5412 115.965 26.383C115.766 25.4874 114.798 24.8901 113.92 25.1072Z" fill="#FF2A2A"/>
<path d="M0.36208 43.3676C0.018104 43.4943 0 43.621 0 46.6703C0 49.5205 0.00905203 49.6472 0.18104 49.8192C0.36208 50.0002 0.479756 50.0002 16.0673 50.0002C31.6549 50.0002 31.7725 50.0002 31.9537 49.8192C32.1256 49.6472 32.1347 49.5205 32.1347 46.6703C32.1347 44.2454 32.1076 43.6662 32.008 43.5215C31.8812 43.3495 31.6006 43.3495 16.185 43.3315C7.55844 43.3224 0.434497 43.3404 0.36208 43.3676Z" fill="#FF2A2A"/>
</g>
<defs>
<clipPath id="clip0">
<rect width="182.353" height="50" fill="white"/>
</clipPath>
</defs>
</svg>
