<svg width="79" height="79" viewBox="0 0 79 79" fill="none" xmlns="http://www.w3.org/2000/svg">
<path d="M68.6011 66.7353C68.0611 67.3167 67.5088 67.8535 66.9342 68.4121C66.8096 68.5333 66.6838 68.6556 66.557 68.7795L66.554 68.7824C65.4722 69.8142 64.3826 70.8877 63.3612 72.0904L63.3558 72.0968L63.3501 72.1029C61.597 73.9774 59.5189 74.8649 56.8252 74.8649H56.8198C56.5735 74.8649 56.2971 74.8649 56.0354 74.8475C56.0352 74.8475 56.0351 74.8475 56.0349 74.8475L56.0582 74.4982L68.6011 66.7353ZM68.6011 66.7353C69.487 65.8138 69.9724 64.8523 69.97 63.8597C69.9676 62.8648 69.4756 61.9184 68.577 61.0282C68.5767 61.028 68.5764 61.0277 68.5762 61.0275L59.3903 51.8416L59.3736 51.8249L59.3625 51.8138C58.8191 51.2197 57.884 50.4885 56.7085 50.4885C55.5127 50.4885 54.5258 51.259 53.9433 51.8416L48.241 57.5439C47.9636 57.8212 47.1857 58.5919 45.9541 58.5919C45.4651 58.5919 44.9848 58.4744 44.4599 58.212C44.4441 58.2041 44.4251 58.1925 44.3889 58.1699C44.3616 58.1528 44.3206 58.1269 44.2758 58.1034C43.7813 57.7976 43.2071 57.5105 42.6187 57.2163L42.6092 57.2116C41.9401 56.877 41.2555 56.5344 40.5892 56.1119L40.5889 56.1117C35.2734 52.7502 30.4491 48.3587 25.8675 42.7147L25.856 42.7006L25.8432 42.6878L25.8412 42.6858C23.3306 39.4961 21.6874 36.8299 20.5217 34.0094L20.4764 33.8736C20.3319 33.4153 20.208 32.8847 20.2744 32.3108C20.3399 31.7453 20.5937 31.1085 21.258 30.4442L21.2982 30.4041L21.3013 30.3978C21.3103 30.3901 21.3213 30.3804 21.3332 30.3689C22.7892 29.0631 24.1269 27.7253 25.5257 26.2933C25.849 25.9811 26.1673 25.6591 26.4847 25.338C26.6433 25.1775 26.8017 25.0173 26.9603 24.8586C27.8773 23.9417 28.3884 23.0074 28.3884 22.0267C28.3884 21.0461 27.8773 20.1118 26.9603 19.1949L22.4104 14.6449C22.1455 14.3717 21.8807 14.1028 21.6191 13.837L21.6122 13.83C21.3473 13.561 21.0857 13.2952 20.8284 13.0296C19.8121 11.98 18.8413 10.9923 17.8191 10.0369L17.7983 10.0161L17.7733 9.99109L17.7732 9.99108C17.2179 9.43576 16.2823 8.72142 15.0914 8.72142C14.123 8.72142 13.1746 9.19549 12.3175 10.0001L12.3174 9.99994L12.3096 10.0078L6.62391 15.6934C5.18147 17.1359 4.39547 18.8304 4.22172 20.8631L4.22162 20.8643C3.96596 23.9834 4.54828 27.2714 6.10977 31.4524L68.6011 66.7353ZM62.125 49.1802L62.125 49.1802L62.1295 49.1848L71.2833 58.3719L71.285 58.3736C72.9122 59.9847 73.7489 61.8825 73.7489 63.8439C73.7489 65.7907 72.927 67.7077 71.3289 69.3704L71.3282 69.3711C70.6165 70.1159 69.8872 70.8287 69.1721 71.5105L69.1702 71.5123C69.0916 71.5884 69.0132 71.6642 68.935 71.7399C67.9728 72.6702 67.0418 73.5704 66.2259 74.5589L66.2006 74.5896L66.1995 74.5916C66.1929 74.5986 66.185 74.6072 66.177 74.6166C66.1689 74.6262 66.1599 74.6375 66.1506 74.6507C63.6883 77.3119 60.5555 78.6501 56.8085 78.6501C56.4856 78.6501 56.128 78.6339 55.7777 78.6173C50.13 78.2544 45.0628 76.1291 41.237 74.3162C31.2457 69.4863 22.4983 62.6316 15.2266 53.9488C9.22827 46.7374 5.21585 40.0187 2.53099 32.7762L2.53098 32.7762C1.43464 29.8194 0.0240193 25.3446 0.417345 20.5559C0.677073 17.6203 1.85836 15.0963 3.93425 13.0204L3.93533 13.0193L9.60324 7.30141L9.60334 7.30132L9.60343 7.30122L9.60353 7.30112L9.60363 7.30103L9.60372 7.30093L9.60382 7.30084L9.60391 7.30074L9.60401 7.30065L9.6041 7.30055L9.6042 7.30046L9.60429 7.30036L9.60432 7.30033L9.60438 7.30027L9.60448 7.30018L9.60457 7.30008L9.60466 7.29999L9.60475 7.2999L9.60485 7.29981L9.60494 7.29972L9.60503 7.29963L9.60512 7.29954L9.60521 7.29945L9.6053 7.29936L9.60539 7.29927L9.60548 7.29918L9.60557 7.29909L9.60565 7.299L9.60574 7.29891L9.60583 7.29882L9.60592 7.29874L9.606 7.29865L9.60609 7.29856L9.60618 7.29848L9.60626 7.29839L9.60635 7.2983L9.60643 7.29822L9.60652 7.29813L9.6066 7.29805L9.60669 7.29796L9.60677 7.29788L9.60686 7.2978L9.60694 7.29771L9.60702 7.29763L9.60711 7.29755L9.60719 7.29746L9.60727 7.29738L9.60735 7.2973L9.60743 7.29722L9.60752 7.29714L9.6076 7.29706L9.60768 7.29698L9.60776 7.2969L9.60784 7.29682L9.60792 7.29674L9.608 7.29666L9.60808 7.29658L9.60815 7.2965L9.60823 7.29642L9.60831 7.29634L9.60839 7.29626L9.60847 7.29619L9.60854 7.29611L9.60862 7.29603L9.6087 7.29596L9.60877 7.29588L9.60885 7.2958L9.60893 7.29573L9.609 7.29565L9.60908 7.29558L9.60915 7.2955L9.60923 7.29543L9.6093 7.29535L9.60938 7.29528L9.60945 7.2952L9.60952 7.29513L9.6096 7.29506L9.60967 7.29498L9.60974 7.29491L9.60982 7.29484L9.60989 7.29477L9.60996 7.29469L9.61003 7.29462L9.6101 7.29455L9.61017 7.29448L9.61025 7.29441L9.61032 7.29434L9.61039 7.29427L9.61046 7.2942L9.61053 7.29413L9.6106 7.29406L9.61067 7.29399L9.61073 7.29392L9.6108 7.29385L9.61087 7.29378L9.61094 7.29371L9.61101 7.29364L9.61108 7.29357L9.61115 7.29351L9.61121 7.29344L9.61128 7.29337L9.61135 7.2933L9.61141 7.29324L9.61148 7.29317L9.61155 7.2931L9.61161 7.29304L9.61168 7.29297L9.61175 7.29291L9.61181 7.29284L9.61188 7.29278L9.61194 7.29271L9.61201 7.29265L9.61207 7.29258L9.61213 7.29252L9.6122 7.29245L9.61226 7.29239L9.61233 7.29233L9.61239 7.29226L9.61245 7.2922L9.61252 7.29214L9.61258 7.29207L9.61264 7.29201L9.61271 7.29195L9.61277 7.29188L9.61283 7.29182L9.61289 7.29176L9.61295 7.2917L9.61302 7.29164L9.61308 7.29158L9.61314 7.29151L9.6132 7.29145L9.61326 7.29139L9.61332 7.29133L9.61338 7.29127L9.61344 7.29121L9.6135 7.29115L9.61356 7.29109L9.61362 7.29103L9.61368 7.29097L9.61374 7.29091L9.6138 7.29085L9.61386 7.2908L9.61392 7.29074L9.61397 7.29068L9.61403 7.29062L9.61409 7.29056L9.61415 7.2905L9.61421 7.29045L9.61427 7.29039L9.61432 7.29033L9.61438 7.29027L9.61444 7.29022L9.61449 7.29016L9.61455 7.2901L9.61461 7.29004L9.61467 7.28999L9.61472 7.28993L9.61478 7.28987L9.61483 7.28982L9.61489 7.28976L9.61495 7.28971L9.615 7.28965L9.61506 7.28959L9.61511 7.28954L9.61517 7.28948L9.61522 7.28943L9.61528 7.28937L9.61533 7.28932L9.61539 7.28926L9.61544 7.28921L9.6155 7.28915L9.61555 7.2891L9.61561 7.28905L9.61566 7.28899L9.61572 7.28894L9.61577 7.28888L9.61582 7.28883L9.61588 7.28878L9.61593 7.28872L9.61598 7.28867L9.61604 7.28862L9.61609 7.28856L9.61614 7.28851L9.6162 7.28846L9.61625 7.2884L9.6163 7.28835L9.61635 7.2883L9.61641 7.28825L9.61646 7.28819L9.61651 7.28814L9.61656 7.28809L9.61662 7.28804L9.61667 7.28798L9.61672 7.28793L9.61677 7.28788L9.61682 7.28783L9.61687 7.28778L9.61693 7.28773L9.61698 7.28767L9.61703 7.28762L9.61708 7.28757L9.61713 7.28752L9.61718 7.28747L9.61723 7.28742L9.61729 7.28737L9.61734 7.28732L9.61739 7.28727L9.61744 7.28721L9.61749 7.28716L9.61754 7.28711L9.61759 7.28706L9.61764 7.28701L9.61769 7.28696L9.61774 7.28691L9.61779 7.28686L9.61784 7.28681L9.61789 7.28676L9.61794 7.28671L9.61799 7.28666L9.61804 7.28661L9.61809 7.28656L9.61814 7.28651L9.61819 7.28646L9.61824 7.28641L9.61829 7.28636L9.61834 7.28631L9.61839 7.28626L9.61844 7.28621L9.61849 7.28616L9.61854 7.28611L9.61859 7.28607L9.61864 7.28602L9.61869 7.28597L9.61874 7.28592L9.61878 7.28587L9.61883 7.28582L9.61888 7.28577L9.61893 7.28572L9.61898 7.28567L9.61903 7.28562L9.61908 7.28557L9.61913 7.28552L9.61918 7.28547L9.61923 7.28543L9.61928 7.28538L9.61932 7.28533L9.61937 7.28528L9.61942 7.28523L9.61947 7.28518L9.61952 7.28513L9.61957 7.28508L9.61962 7.28503L9.61967 7.28499L9.61972 7.28494L9.61976 7.28489L9.61981 7.28484L9.61986 7.28479L9.61991 7.28474L9.61996 7.28469L9.62001 7.28464L9.62006 7.28459L9.62011 7.28455L9.62016 7.2845L9.6202 7.28445L9.62025 7.2844L9.6203 7.28435L9.62035 7.2843L9.6204 7.28425L9.62045 7.2842L9.6205 7.28415L9.62055 7.28411L9.6206 7.28406L9.62064 7.28401L9.62069 7.28396L9.62074 7.28391L9.62079 7.28386L9.62084 7.28381L9.62089 7.28376L9.62094 7.28371L9.62099 7.28366L9.62104 7.28361L9.62109 7.28357L9.62114 7.28352L9.62119 7.28347L9.62123 7.28342L9.62128 7.28337L9.62133 7.28332L9.62138 7.28327L9.62143 7.28322L9.62148 7.28317L9.62153 7.28312L9.62158 7.28307L9.62163 7.28302L9.62168 7.28297L9.62173 7.28292L9.62178 7.28287L9.62183 7.28282L9.62188 7.28277L9.62193 7.28272L9.62198 7.28267L9.62203 7.28262L9.62208 7.28257L9.62213 7.28252L9.62218 7.28247L9.62223 7.28242L9.62228 7.28237L9.62233 7.28232L9.62239 7.28227L9.62244 7.28222L9.62249 7.28217L9.62254 7.28212L9.62259 7.28206L9.62264 7.28201L9.62269 7.28196L9.62274 7.28191L9.62279 7.28186L9.62284 7.28181L9.6229 7.28176L9.62295 7.28171L9.623 7.28165L9.62305 7.2816L9.6231 7.28155L9.62315 7.2815L9.62321 7.28145L9.62326 7.28139L9.62331 7.28134L9.62336 7.28129L9.62342 7.28124L9.62347 7.28118L9.62352 7.28113L9.62357 7.28108L9.62363 7.28103L9.62368 7.28097L9.62373 7.28092L9.62379 7.28087L9.62384 7.28081L9.62389 7.28076L9.62395 7.28071L9.624 7.28065L9.62405 7.2806L9.62411 7.28054L9.62416 7.28049L9.62422 7.28044L9.62427 7.28038L9.62432 7.28033L9.62438 7.28027L9.62443 7.28022L9.62449 7.28016L9.62454 7.28011L9.6246 7.28005L9.62465 7.28L9.62471 7.27994L9.62476 7.27989L9.62482 7.27983L9.62488 7.27978L9.62493 7.27972L9.62499 7.27966L9.62504 7.27961L9.6251 7.27955L9.62516 7.2795L9.62521 7.27944L9.62527 7.27938L9.62533 7.27932L9.62539 7.27927L9.62544 7.27921L9.6255 7.27915L9.62556 7.27909L9.62562 7.27904L9.62567 7.27898L9.62573 7.27892L9.62579 7.27886L9.62585 7.2788L9.62591 7.27875L9.62597 7.27869L9.62602 7.27863L9.62608 7.27857L9.62614 7.27851L9.6262 7.27845L9.62626 7.27839L9.62632 7.27833L9.62638 7.27827L9.62644 7.27821L9.6265 7.27815L9.62656 7.27809L9.62662 7.27803L9.62668 7.27797L9.62675 7.27791L9.62681 7.27785L9.62687 7.27778L9.62693 7.27772L9.62699 7.27766L9.62705 7.2776L9.62712 7.27754L9.62718 7.27747L9.62724 7.27741L9.62731 7.27735L9.62737 7.27728L9.62743 7.27722L9.62749 7.27716L9.62756 7.27709L9.62762 7.27703L9.62769 7.27697L9.62775 7.2769L9.62782 7.27684L9.62788 7.27677L9.62795 7.27671L9.62801 7.27664L9.62808 7.27658L9.62814 7.27651L9.62821 7.27644L9.62827 7.27638L9.62834 7.27631L9.62841 7.27624L9.62847 7.27618L9.62854 7.27611L9.62861 7.27604L9.62868 7.27598L9.62874 7.27591L9.62881 7.27584L9.62888 7.27577L9.62895 7.2757L9.62902 7.27563L9.62909 7.27557L9.62916 7.2755L9.62923 7.27543L9.6293 7.27536L9.62937 7.27529L9.62944 7.27522L9.62951 7.27515L9.62958 7.27508L9.62965 7.275L9.62972 7.27493L9.62979 7.27486L9.62986 7.27479L9.62994 7.27472L9.63001 7.27465L9.63008 7.27457L9.63015 7.2745L9.63023 7.27443L9.6303 7.27435L9.63037 7.27428L9.63045 7.27421L9.63052 7.27413L9.6306 7.27406L9.63067 7.27398L9.63074 7.27391L9.63082 7.27383L9.6309 7.27376L9.63097 7.27368L9.63105 7.2736L9.63112 7.27353L9.6312 7.27345L9.63128 7.27337L9.63136 7.2733L9.63143 7.27322L9.63151 7.27314L9.63159 7.27306L9.63167 7.27298L9.63175 7.27291L9.63183 7.27283L9.63191 7.27275L9.63199 7.27267L9.63206 7.27259L9.63215 7.27251L9.63223 7.27243L9.63231 7.27235L9.63239 7.27226L9.63247 7.27218L9.63255 7.2721L9.63263 7.27202L9.63272 7.27194L9.6328 7.27185L9.63288 7.27177L9.63297 7.27169L9.63305 7.2716L9.63313 7.27152L9.63322 7.27143L9.6333 7.27135L9.63339 7.27126L9.63347 7.27118L9.63356 7.27109L9.63365 7.27101L9.63373 7.27092L9.63382 7.27083L9.63391 7.27075L9.63399 7.27066L9.63404 7.27061C11.2452 5.72495 13.1277 4.91958 15.0581 4.91958C16.9885 4.91958 18.837 5.72494 20.3975 7.26935L20.3974 7.2695L20.4063 7.27777C21.4818 8.27051 22.5259 9.331 23.5249 10.3633C24.0284 10.9003 24.5646 11.4365 25.0795 11.9514L25.0815 11.9533L29.6333 16.5052C31.3296 18.2015 32.1569 20.1251 32.1569 22.0267C32.1569 23.9283 31.3296 25.852 29.6333 27.5483C29.399 27.7827 29.1648 28.021 28.9318 28.2581L28.9309 28.2591C28.6973 28.4969 28.4649 28.7334 28.2328 28.9655L28.2311 28.9672C28.1121 29.0878 27.9929 29.2088 27.8734 29.33C26.7513 30.4687 25.604 31.6329 24.3758 32.7563L24.1886 32.9275L24.293 33.1587C25.3251 35.4427 26.7429 37.6848 28.8394 40.3346L28.8393 40.3347L28.8424 40.3384C33.1641 45.6484 37.6767 49.7603 42.6485 52.9181L42.6516 52.92C43.1488 53.2286 43.7278 53.5181 44.321 53.8147L44.3253 53.8168C44.3261 53.8172 44.327 53.8177 44.3278 53.8181C44.4719 53.893 44.6161 53.967 44.7607 54.0412C45.0403 54.1846 45.3211 54.3287 45.6047 54.4814L45.8336 54.6047L46.0178 54.4211L51.2866 49.169L51.287 49.1686C52.9165 47.539 54.7985 46.7034 56.7418 46.7034C58.7004 46.7034 60.5636 47.5544 62.125 49.1802ZM68.5989 66.7291L68.3511 66.4903C68.429 66.4091 68.5034 66.328 68.5741 66.247C68.5903 66.2621 68.6056 66.2794 68.6195 66.299C68.6689 66.3685 68.6841 66.4426 68.6841 66.5012C68.6841 66.6076 68.6367 66.6807 68.6132 66.7115C68.6085 66.7177 68.6037 66.7235 68.5989 66.7291Z"  stroke="white" stroke-width="0.7"/>
<path d="M42.694 18.4468L42.692 18.4465C41.6588 18.2789 40.9793 17.2848 41.1632 16.2522C41.3461 15.2248 42.3166 14.5332 43.3623 14.7021C48.5751 15.5904 53.3274 18.0568 57.0945 21.8239C60.8616 25.591 63.3281 30.3433 64.2164 35.5561C64.3853 36.6022 63.6946 37.5824 62.6608 37.7534C62.6501 37.7547 62.6396 37.7561 62.6294 37.7573C62.5087 37.7725 62.4241 37.7832 62.3274 37.7832C61.4091 37.7832 60.6094 37.1344 60.4551 36.2082L60.4548 36.2065C59.6922 31.7665 57.6072 27.7325 54.3882 24.5136C51.1698 21.2952 47.1357 19.1927 42.694 18.4468Z" fill="#015293" stroke="white" stroke-width="0.7"/>
<path d="M78.5056 34.9074L78.5061 34.9099C78.6883 35.9333 77.9873 36.9137 76.9686 37.0696C76.9571 37.071 76.9459 37.0724 76.935 37.0738C76.8144 37.089 76.7298 37.0996 76.6331 37.0996C75.7148 37.0996 74.9151 36.4509 74.7607 35.5247L74.7606 35.5237C73.4311 27.6816 69.7285 20.5295 64.042 14.843L64.0416 14.8426C58.3558 9.17367 51.2044 5.45424 43.3623 4.12456C42.3185 3.94064 41.6293 2.97049 41.797 1.9271C41.9824 0.894463 42.9562 0.197462 43.975 0.378905L43.9776 0.379338C52.6091 1.851 60.4633 5.91831 66.715 12.17C72.9667 18.4217 77.034 26.2758 78.5056 34.9074Z" fill="#015293" stroke="white" stroke-width="0.7"/>
</svg>
