<svg width="88" height="88" viewBox="0 0 88 88" fill="none" xmlns="http://www.w3.org/2000/svg">
<path d="M81.125 4.125H6.875C5.78137 4.12627 4.7329 4.56128 3.95959 5.33459C3.18628 6.1079 2.75127 7.15637 2.75 8.25V79.75C2.75127 80.8436 3.18628 81.8921 3.95959 82.6654C4.7329 83.4387 5.78137 83.8737 6.875 83.875H81.125C82.2186 83.8737 83.2671 83.4387 84.0404 82.6654C84.8137 81.8921 85.2487 80.8436 85.25 79.75V8.25C85.2487 7.15637 84.8137 6.1079 84.0404 5.33459C83.2671 4.56128 82.2186 4.12627 81.125 4.125ZM6.875 6.875H81.125C81.4895 6.87541 81.8391 7.02041 82.0968 7.27818C82.3546 7.53595 82.4996 7.88545 82.5 8.25V15.125H5.5V8.25C5.50041 7.88545 5.64541 7.53595 5.90318 7.27818C6.16095 7.02041 6.51045 6.87541 6.875 6.875ZM81.125 81.125H6.875C6.51045 81.1246 6.16095 80.9796 5.90318 80.7218C5.64541 80.4641 5.50041 80.1145 5.5 79.75V17.875H82.5V79.75C82.4996 80.1145 82.3546 80.4641 82.0968 80.7218C81.8391 80.9796 81.4895 81.1246 81.125 81.125Z" fill="#015293"/>
<path d="M20.625 12.375C21.3844 12.375 22 11.7594 22 11C22 10.2406 21.3844 9.625 20.625 9.625C19.8656 9.625 19.25 10.2406 19.25 11C19.25 11.7594 19.8656 12.375 20.625 12.375Z" fill="#015293"/>
<path d="M15.125 12.375C15.8844 12.375 16.5 11.7594 16.5 11C16.5 10.2406 15.8844 9.625 15.125 9.625C14.3656 9.625 13.75 10.2406 13.75 11C13.75 11.7594 14.3656 12.375 15.125 12.375Z" fill="#015293"/>
<path d="M9.625 12.375C10.3844 12.375 11 11.7594 11 11C11 10.2406 10.3844 9.625 9.625 9.625C8.86561 9.625 8.25 10.2406 8.25 11C8.25 11.7594 8.86561 12.375 9.625 12.375Z" fill="#015293"/>
<path d="M37.125 26.125H50.875C51.2397 26.125 51.5894 25.9801 51.8473 25.7223C52.1051 25.4644 52.25 25.1147 52.25 24.75C52.25 24.3853 52.1051 24.0356 51.8473 23.7777C51.5894 23.5199 51.2397 23.375 50.875 23.375H37.125C36.7603 23.375 36.4106 23.5199 36.1527 23.7777C35.8949 24.0356 35.75 24.3853 35.75 24.75C35.75 25.1147 35.8949 25.4644 36.1527 25.7223C36.4106 25.9801 36.7603 26.125 37.125 26.125Z" fill="#015293"/>
<path d="M60.5 28.875H27.5C27.1353 28.875 26.7856 29.0199 26.5277 29.2777C26.2699 29.5356 26.125 29.8853 26.125 30.25V35.75C26.125 36.1147 26.2699 36.4644 26.5277 36.7223C26.7856 36.9801 27.1353 37.125 27.5 37.125H60.5C60.8647 37.125 61.2144 36.9801 61.4723 36.7223C61.7301 36.4644 61.875 36.1147 61.875 35.75V30.25C61.875 29.8853 61.7301 29.5356 61.4723 29.2777C61.2144 29.0199 60.8647 28.875 60.5 28.875ZM59.125 34.375H28.875V31.625H59.125V34.375Z" fill="#015293"/>
<path d="M60.5 39.875H27.5C27.1353 39.875 26.7856 40.0199 26.5277 40.2777C26.2699 40.5356 26.125 40.8853 26.125 41.25V46.75C26.125 47.1147 26.2699 47.4644 26.5277 47.7223C26.7856 47.9801 27.1353 48.125 27.5 48.125H60.5C60.8647 48.125 61.2144 47.9801 61.4723 47.7223C61.7301 47.4644 61.875 47.1147 61.875 46.75V41.25C61.875 40.8853 61.7301 40.5356 61.4723 40.2777C61.2144 40.0199 60.8647 39.875 60.5 39.875ZM59.125 45.375H28.875V42.625H59.125V45.375Z" fill="#015293"/>
<path d="M60.5 50.875H27.5C27.1353 50.875 26.7856 51.0199 26.5277 51.2777C26.2699 51.5356 26.125 51.8853 26.125 52.25V63.25C26.125 63.6147 26.2699 63.9644 26.5277 64.2223C26.7856 64.4801 27.1353 64.625 27.5 64.625H60.5C60.8647 64.625 61.2144 64.4801 61.4723 64.2223C61.7301 63.9644 61.875 63.6147 61.875 63.25V52.25C61.875 51.8853 61.7301 51.5356 61.4723 51.2777C61.2144 51.0199 60.8647 50.875 60.5 50.875ZM59.125 61.875H28.875V53.625H59.125V61.875Z" fill="#015293"/>
<path d="M46.75 67.375H41.25C40.156 67.375 39.1068 67.8096 38.3332 68.5832C37.5596 69.3568 37.125 70.406 37.125 71.5C37.125 72.594 37.5596 73.6432 38.3332 74.4168C39.1068 75.1904 40.156 75.625 41.25 75.625H46.75C47.844 75.625 48.8932 75.1904 49.6668 74.4168C50.4404 73.6432 50.875 72.594 50.875 71.5C50.875 70.406 50.4404 69.3568 49.6668 68.5832C48.8932 67.8096 47.844 67.375 46.75 67.375ZM46.75 72.875H41.25C40.8853 72.875 40.5356 72.7301 40.2777 72.4723C40.0199 72.2144 39.875 71.8647 39.875 71.5C39.875 71.1353 40.0199 70.7856 40.2777 70.5277C40.5356 70.2699 40.8853 70.125 41.25 70.125H46.75C47.1147 70.125 47.4644 70.2699 47.7223 70.5277C47.9801 70.7856 48.125 71.1353 48.125 71.5C48.125 71.8647 47.9801 72.2144 47.7223 72.4723C47.4644 72.7301 47.1147 72.875 46.75 72.875Z" fill="#015293"/>
</svg>
