<svg width="88" height="88" viewBox="0 0 88 88" fill="none" xmlns="http://www.w3.org/2000/svg">
<path d="M8.84375 25.5687H8.69375V25.7188V34.1562V34.3062H8.84375H17.2812H17.4312V34.1562V25.7188V25.5687H17.2812H8.84375ZM18.6875 36.8188H7.4375C6.74409 36.8188 6.18125 36.2559 6.18125 35.5625V24.3125C6.18125 23.6191 6.74409 23.0563 7.4375 23.0563H18.6875C19.3809 23.0563 19.9438 23.6191 19.9438 24.3125V35.5625C19.9438 36.2559 19.3809 36.8188 18.6875 36.8188Z" fill="#5AB772" stroke="white" stroke-width="0.3"/>
<path d="M17.2812 68.0562H17.4312V67.9062V59.4688V59.3187H17.2812H8.84375H8.69375V59.4688V67.9062V68.0562H8.84375H17.2812ZM7.4375 56.8063H18.6875C19.381 56.8063 19.9438 57.3678 19.9438 58.0625V69.3125C19.9438 70.0072 19.381 70.5688 18.6875 70.5688H7.4375C6.74399 70.5688 6.18125 70.0072 6.18125 69.3125V58.0625C6.18125 57.3678 6.744 56.8063 7.4375 56.8063Z" fill="#5AB772" stroke="white" stroke-width="0.3"/>
<path d="M23.0563 8.99375H53.6938V11.5062H23.0563V8.99375Z" fill="#5AB772" stroke="white" stroke-width="0.3"/>
<path d="M23.0563 14.6188H53.6938V17.1312H23.0563V14.6188Z" fill="#5AB772" stroke="white" stroke-width="0.3"/>
<path d="M23.0563 25.8688H53.6938V28.3812H23.0563V25.8688Z" fill="#5AB772" stroke="white" stroke-width="0.3"/>
<path d="M23.0563 31.4938H53.6938V34.0062H23.0563V31.4938Z" fill="#5AB772" stroke="white" stroke-width="0.3"/>
<path d="M18.1053 6.18133H18.1674L18.2114 6.13739L20.5058 3.84299L22.2821 5.6193L19.9877 7.9137L19.9438 7.95763V8.01976V18.6876C19.9438 19.381 19.3809 19.9438 18.6875 19.9438H7.4375C6.74409 19.9438 6.18125 19.381 6.18125 18.6876V7.43758C6.18125 6.74417 6.74409 6.18133 7.4375 6.18133H18.1053ZM15.3989 8.94989L15.6549 8.69383H15.2928H8.84375H8.69375V8.84383V15.2929V15.655L8.94982 15.399L15.3989 8.94989ZM17.2813 17.4313H17.4313V17.2813V10.8323V10.4701L17.1752 10.7262L10.7261 17.1753L10.4701 17.4313H10.8322H17.2813Z" fill="#5AB772" stroke="white" stroke-width="0.3"/>
<path d="M18.1053 39.9313H18.1674L18.2114 39.8874L20.5058 37.593L22.2821 39.3693L19.9877 41.6637L19.9438 41.7076V41.7698V52.4376C19.9438 53.1323 19.381 53.6938 18.6875 53.6938H7.4375C6.744 53.6938 6.18125 53.1323 6.18125 52.4376V41.1876C6.18125 40.4942 6.74409 39.9313 7.4375 39.9313H18.1053ZM15.3989 42.6999L15.6549 42.4438H15.2928H8.84375H8.69375V42.5938V49.0429V49.405L8.94982 49.149L15.3989 42.6999ZM17.2813 51.1813H17.4313V51.0313V44.5823V44.2201L17.1752 44.4762L10.7261 50.9253L10.4701 51.1813H10.8322H17.2813Z" fill="#5AB772" stroke="white" stroke-width="0.3"/>
<path d="M79.0062 59.4688V59.6188H79.1562H86.1875C86.881 59.6188 87.4437 60.1803 87.4437 60.875V86.1875C87.4437 86.8822 86.881 87.4437 86.1875 87.4437H24.3125C23.619 87.4437 23.0562 86.8822 23.0562 86.1875V76.3438V76.1937H22.9062H1.8125C1.11899 76.1937 0.55625 75.6322 0.55625 74.9375V1.8125C0.55625 1.11909 1.11909 0.55625 1.8125 0.55625H58.0625C58.7559 0.55625 59.3187 1.11909 59.3187 1.8125V36.9688V37.1188H59.4688H77.75C78.4434 37.1188 79.0062 37.6816 79.0062 38.375V59.4688ZM67.9062 62.1312H67.7562V62.2812V67.9062V68.0563H67.9062H73.5312H73.6813V67.9062V62.2812V62.1312H73.5312H67.9062ZM50.8812 59.4688V59.6188H51.0312H76.3438H76.4938V59.4688V39.7812V39.6312H76.3438H67.9062H67.7562V39.7812V46.8125C67.7562 47.5072 67.1935 48.0687 66.5 48.0687H60.875C60.1815 48.0687 59.6188 47.5072 59.6188 46.8125V39.7812V39.6312H59.4688H51.0312H50.8812V39.7812V59.4688ZM62.2812 39.6312H62.1312V39.7812V45.4062V45.5563H62.2812H65.0938H65.2438V45.4062V39.7812V39.6312H65.0938H62.2812ZM22.9062 73.6813H23.0562V73.5312V60.875C23.0562 60.1803 23.619 59.6188 24.3125 59.6188H48.2188H48.3688V59.4688V51.0312V50.8812H48.2188H23.0562V48.3688H48.2188H48.3688V48.2188V45.4062V45.2562H48.2188H23.0562V42.7438H48.2188H48.3688V42.5938V38.375C48.3688 37.6816 48.9316 37.1188 49.625 37.1188H56.6562H56.8063V36.9688V3.21875V3.06875H56.6562H3.21875H3.06875V3.21875V73.5312V73.6813H3.21875H22.9062ZM36.9688 62.1312H36.8187V62.2812V67.9062V68.0563H36.9688H42.5938H42.7438V67.9062V62.2812V62.1312H42.5938H36.9688ZM25.7188 62.1312H25.5688V62.2812V84.7812V84.9313H25.7188H53.8438H53.9938V84.7812V62.2812V62.1312H53.8438H45.4062H45.2562V62.2812V69.3125C45.2562 70.0072 44.6935 70.5687 44 70.5687H35.5625C34.869 70.5687 34.3063 70.0072 34.3063 69.3125V62.2812V62.1312H34.1562H25.7188ZM84.7812 84.9313H84.9313V84.7812V62.2812V62.1312H84.7812H76.3438H76.1937V62.2812V69.3125C76.1937 70.0072 75.631 70.5687 74.9375 70.5687H66.5C65.8065 70.5687 65.2438 70.0072 65.2438 69.3125V62.2812V62.1312H65.0938H56.6562H56.5062V62.2812V84.7812V84.9313H56.6562H84.7812Z" fill="#5AB772" stroke="white" stroke-width="0.3"/>
<path d="M76.4938 79.3063H81.8187V81.8187H76.4938V79.3063Z" fill="#5AB772" stroke="white" stroke-width="0.3"/>
<path d="M68.0563 53.9938H73.3812V56.5062H68.0563V53.9938Z" fill="#5AB772" stroke="white" stroke-width="0.3"/>
<path d="M76.4938 73.6813H81.8187V76.1937H76.4938V73.6813Z" fill="#5AB772" stroke="white" stroke-width="0.3"/>
<path d="M45.5563 79.3063H50.8812V81.8187H45.5563V79.3063Z" fill="#5AB772" stroke="white" stroke-width="0.3"/>
<path d="M45.5563 73.6813H50.8812V76.1937H45.5563V73.6813Z" fill="#5AB772" stroke="white" stroke-width="0.3"/>
</svg>
