<svg width="94" height="89" viewBox="0 0 94 89" fill="none" xmlns="http://www.w3.org/2000/svg">
<mask id="path-1-inside-1" fill="white">
<path d="M1.53627 38.6994H9.92486C10.421 40.4885 11.1357 42.2097 12.0548 43.8228L6.11745 49.7578C5.83393 50.0413 5.67445 50.4258 5.67445 50.8275C5.67445 51.2291 5.83393 51.6136 6.11745 51.8972L12.532 58.3135C13.1227 58.903 14.0796 58.903 14.6702 58.3135L20.6082 52.375C22.2213 53.2935 23.9407 54.0088 25.7298 54.5043V62.8929C25.7298 63.7281 26.4067 64.405 27.2419 64.405H36.3145C37.1497 64.405 37.8266 63.7281 37.8266 62.8929V54.5043C39.6157 54.0088 41.3351 53.2935 42.9482 52.375L48.8862 58.3135C49.4863 58.8806 50.4248 58.8806 51.0244 58.3135L57.4401 51.8972C57.7237 51.6136 57.8831 51.2291 57.8831 50.8275C57.8831 50.4258 57.7237 50.0413 57.4401 49.7578L51.5016 43.8228C52.4207 42.2097 53.1354 40.4885 53.6315 38.6994H62.0201C62.8553 38.6994 63.5322 38.0225 63.5322 37.1873V28.1147C63.5322 27.2801 62.8553 26.6026 62.0201 26.6026H53.6315C53.1354 24.8141 52.4207 23.0929 51.5016 21.4798L57.439 15.5448C57.7225 15.2613 57.882 14.8768 57.882 14.4751C57.882 14.0735 57.7225 13.689 57.439 13.4054L51.0244 6.98907C50.4337 6.399 49.4768 6.399 48.8862 6.98907L42.9482 12.9276C41.3351 12.0097 39.6151 11.2944 37.8266 10.7983V2.40907C37.8266 1.57446 37.1497 0.896973 36.3145 0.896973H27.2419C26.4067 0.896973 25.7298 1.57446 25.7298 2.40907V10.7983C23.9413 11.2944 22.2213 12.0097 20.6082 12.9276L14.6702 6.98907C14.0701 6.42203 13.1316 6.42203 12.532 6.98907L6.11627 13.4054C5.83275 13.689 5.67327 14.0735 5.67327 14.4751C5.67327 14.8768 5.83275 15.2613 6.11627 15.5448L12.0548 21.4798C11.1357 23.0929 10.421 24.8141 9.92486 26.6026H1.53627C0.701069 26.6026 0.0241699 27.2801 0.0241699 28.1147V37.1873C0.0241699 38.0225 0.701069 38.6994 1.53627 38.6994ZM3.04836 29.6268H11.108C11.8185 29.6268 12.4334 29.1324 12.5852 28.4384C13.0814 26.1738 13.9786 24.0155 15.2343 22.0663C15.6177 21.4686 15.5326 20.6836 15.03 20.1809L9.32357 14.4745L13.6011 10.1964L19.3064 15.9028C19.809 16.4066 20.5946 16.4917 21.1935 16.1077C23.1433 14.8526 25.301 13.9553 27.5656 13.4586C28.259 13.3062 28.754 12.6913 28.754 11.9808V3.92117H34.8024V11.9808C34.8024 12.6913 35.2974 13.3062 35.9908 13.4586C38.2554 13.9553 40.4131 14.8526 42.3629 16.1077C42.9618 16.4917 43.7474 16.4066 44.25 15.9028L49.9553 10.1964L54.2317 14.4745L48.5264 20.1792C48.0226 20.6824 47.9381 21.468 48.3221 22.0663C49.5778 24.0167 50.4739 26.1744 50.9694 28.4396C51.1218 29.1336 51.7367 29.6286 52.4467 29.6286H60.508V35.677H52.4467C51.7367 35.677 51.1218 36.1714 50.9694 36.8654C50.4739 39.13 49.5772 41.2877 48.3221 43.2357C47.9387 43.834 48.0238 44.619 48.5264 45.1217L54.2328 50.8269L49.9553 55.1062L44.25 49.3992C43.7474 48.896 42.9618 48.8109 42.3629 49.1949C40.4143 50.4506 38.2572 51.3478 35.9926 51.844C35.298 51.9952 34.8024 52.6107 34.8024 53.3212V61.3808H28.754V53.3212C28.754 52.6107 28.2584 51.9952 27.5638 51.844C25.2992 51.3478 23.1421 50.4506 21.1935 49.1949C20.5946 48.8109 19.809 48.896 19.3064 49.3992L13.6011 55.1062L9.32475 50.8281L15.03 45.1228C15.5338 44.6202 15.6183 43.8346 15.2343 43.2357C13.9786 41.2859 13.0814 39.1276 12.5852 36.8624C12.4328 36.1684 11.8185 35.6752 11.108 35.6752H3.04836V29.6268Z"/>
</mask>
<path d="M1.53627 38.6994H9.92486C10.421 40.4885 11.1357 42.2097 12.0548 43.8228L6.11745 49.7578C5.83393 50.0413 5.67445 50.4258 5.67445 50.8275C5.67445 51.2291 5.83393 51.6136 6.11745 51.8972L12.532 58.3135C13.1227 58.903 14.0796 58.903 14.6702 58.3135L20.6082 52.375C22.2213 53.2935 23.9407 54.0088 25.7298 54.5043V62.8929C25.7298 63.7281 26.4067 64.405 27.2419 64.405H36.3145C37.1497 64.405 37.8266 63.7281 37.8266 62.8929V54.5043C39.6157 54.0088 41.3351 53.2935 42.9482 52.375L48.8862 58.3135C49.4863 58.8806 50.4248 58.8806 51.0244 58.3135L57.4401 51.8972C57.7237 51.6136 57.8831 51.2291 57.8831 50.8275C57.8831 50.4258 57.7237 50.0413 57.4401 49.7578L51.5016 43.8228C52.4207 42.2097 53.1354 40.4885 53.6315 38.6994H62.0201C62.8553 38.6994 63.5322 38.0225 63.5322 37.1873V28.1147C63.5322 27.2801 62.8553 26.6026 62.0201 26.6026H53.6315C53.1354 24.8141 52.4207 23.0929 51.5016 21.4798L57.439 15.5448C57.7225 15.2613 57.882 14.8768 57.882 14.4751C57.882 14.0735 57.7225 13.689 57.439 13.4054L51.0244 6.98907C50.4337 6.399 49.4768 6.399 48.8862 6.98907L42.9482 12.9276C41.3351 12.0097 39.6151 11.2944 37.8266 10.7983V2.40907C37.8266 1.57446 37.1497 0.896973 36.3145 0.896973H27.2419C26.4067 0.896973 25.7298 1.57446 25.7298 2.40907V10.7983C23.9413 11.2944 22.2213 12.0097 20.6082 12.9276L14.6702 6.98907C14.0701 6.42203 13.1316 6.42203 12.532 6.98907L6.11627 13.4054C5.83275 13.689 5.67327 14.0735 5.67327 14.4751C5.67327 14.8768 5.83275 15.2613 6.11627 15.5448L12.0548 21.4798C11.1357 23.0929 10.421 24.8141 9.92486 26.6026H1.53627C0.701069 26.6026 0.0241699 27.2801 0.0241699 28.1147V37.1873C0.0241699 38.0225 0.701069 38.6994 1.53627 38.6994ZM3.04836 29.6268H11.108C11.8185 29.6268 12.4334 29.1324 12.5852 28.4384C13.0814 26.1738 13.9786 24.0155 15.2343 22.0663C15.6177 21.4686 15.5326 20.6836 15.03 20.1809L9.32357 14.4745L13.6011 10.1964L19.3064 15.9028C19.809 16.4066 20.5946 16.4917 21.1935 16.1077C23.1433 14.8526 25.301 13.9553 27.5656 13.4586C28.259 13.3062 28.754 12.6913 28.754 11.9808V3.92117H34.8024V11.9808C34.8024 12.6913 35.2974 13.3062 35.9908 13.4586C38.2554 13.9553 40.4131 14.8526 42.3629 16.1077C42.9618 16.4917 43.7474 16.4066 44.25 15.9028L49.9553 10.1964L54.2317 14.4745L48.5264 20.1792C48.0226 20.6824 47.9381 21.468 48.3221 22.0663C49.5778 24.0167 50.4739 26.1744 50.9694 28.4396C51.1218 29.1336 51.7367 29.6286 52.4467 29.6286H60.508V35.677H52.4467C51.7367 35.677 51.1218 36.1714 50.9694 36.8654C50.4739 39.13 49.5772 41.2877 48.3221 43.2357C47.9387 43.834 48.0238 44.619 48.5264 45.1217L54.2328 50.8269L49.9553 55.1062L44.25 49.3992C43.7474 48.896 42.9618 48.8109 42.3629 49.1949C40.4143 50.4506 38.2572 51.3478 35.9926 51.844C35.298 51.9952 34.8024 52.6107 34.8024 53.3212V61.3808H28.754V53.3212C28.754 52.6107 28.2584 51.9952 27.5638 51.844C25.2992 51.3478 23.1421 50.4506 21.1935 49.1949C20.5946 48.8109 19.809 48.896 19.3064 49.3992L13.6011 55.1062L9.32475 50.8281L15.03 45.1228C15.5338 44.6202 15.6183 43.8346 15.2343 43.2357C13.9786 41.2859 13.0814 39.1276 12.5852 36.8624C12.4328 36.1684 11.8185 35.6752 11.108 35.6752H3.04836V29.6268Z" fill="#015293" stroke="white" stroke-width="0.6" mask="url(#path-1-inside-1)"/>
<path d="M31.7784 23.4284L31.7783 23.4284C26.6867 23.4338 22.5612 27.5593 22.5558 32.6508V32.651C22.5558 37.7444 26.6856 41.8736 31.7784 41.8736C36.8713 41.8736 41.001 37.7444 41.001 32.651C41.001 27.5581 36.8713 23.4284 31.7784 23.4284ZM43.7252 32.651C43.7252 39.2497 38.3767 44.5977 31.7786 44.5978C25.1839 44.5908 19.8387 39.2456 19.8316 32.6509C19.8317 26.0528 25.1803 20.7042 31.7784 20.7042C38.3766 20.7042 43.7252 26.0528 43.7252 32.651Z" fill="#015293" stroke="white" stroke-width="0.3"/>
<path d="M31.7783 18.8921L31.7782 18.8921C24.1828 18.9005 18.0278 25.0561 18.0195 32.6508V32.651C18.0195 40.25 24.1793 46.4099 31.7783 46.4099C39.3773 46.4099 45.5372 40.25 45.5372 32.651C45.5372 25.052 39.3773 18.8921 31.7783 18.8921ZM48.2614 32.651C48.2614 41.7547 40.8816 49.134 31.7785 49.1341C22.6794 49.1235 15.3064 41.75 15.2953 32.6509C15.2953 23.5478 22.6752 16.1679 31.7783 16.1679C40.8815 16.1679 48.2614 23.5479 48.2614 32.651Z" fill="#015293" stroke="white" stroke-width="0.3"/>
<path d="M86.0637 70.4534V70.6033L86.2135 70.6034C90.3044 70.6087 93.6189 73.9232 93.6242 78.0141V81.0379C93.6189 85.1295 90.3044 88.444 86.2135 88.4486H7.58482C3.49395 88.444 0.179431 85.1295 0.17417 81.038V78.014C0.179431 73.9231 3.49395 70.6087 7.58484 70.6034H55.9717H56.1217V70.4534V58.3567C56.1217 57.6049 56.7315 56.9946 57.4838 56.9946H65.0443H65.1943V56.8446V44.7478C65.1943 43.996 65.8041 43.3857 66.5564 43.3857H80.1653C80.9176 43.3857 81.5274 43.996 81.5274 44.7478V56.8446V56.9946H81.6774H84.7016C85.4539 56.9946 86.0637 57.6049 86.0637 58.3567V70.4534ZM83.1895 70.6034H83.3395V70.4534V59.8688V59.7188H83.1895H72.6048H72.4548V59.8688V70.4534V70.6034H72.6048H83.1895ZM68.0685 46.1099H67.9185V46.2599V56.8446V56.9946H68.0685H78.6532H78.8032V56.8446V46.2599V46.1099H78.6532H68.0685ZM58.9959 59.7188H58.8459V59.8688V70.4534V70.6034H58.9959H69.5806H69.7306V70.4534V59.8688V59.7188H69.5806H58.9959ZM86.2137 85.7244C88.8015 85.7244 90.9 83.6266 90.9 81.0381V78.0139C90.9 75.4261 88.8015 73.3276 86.2137 73.3276H7.58465C4.99681 73.3276 2.89836 75.4261 2.89836 78.0139V81.0381C2.89836 83.6266 4.99682 85.7244 7.58465 85.7244H86.2137Z" fill="#015293" stroke="white" stroke-width="0.3"/>
<path d="M42.5128 79.526C42.5128 77.1039 44.4769 75.1397 46.8991 75.1397C49.3212 75.1397 51.2854 77.1039 51.2854 79.526C51.2854 81.9488 49.3213 83.9123 46.8991 83.9123C44.4769 83.9123 42.5128 81.9488 42.5128 79.526ZM45.237 79.526C45.237 80.4441 45.981 81.1881 46.8991 81.1881C47.8171 81.1881 48.5612 80.4441 48.5612 79.526C48.5612 78.6086 47.8172 77.8639 46.8991 77.8639C45.981 77.8639 45.237 78.6086 45.237 79.526Z" fill="#015293" stroke="white" stroke-width="0.3"/>
<path d="M27.3919 79.526C27.3919 77.1039 29.3561 75.1397 31.7782 75.1397C34.2004 75.1397 36.1645 77.1039 36.1645 79.526C36.1645 81.9488 34.2004 83.9123 31.7782 83.9123C29.3561 83.9123 27.3919 81.9488 27.3919 79.526ZM30.1161 79.526C30.1161 80.4441 30.8602 81.1881 31.7782 81.1881C32.6963 81.1881 33.4403 80.4441 33.4403 79.526C33.4403 78.6086 32.6963 77.8639 31.7782 77.8639C30.8602 77.8639 30.1161 78.6086 30.1161 79.526Z" fill="#015293" stroke="white" stroke-width="0.3"/>
<path d="M57.6339 79.526C57.6339 77.1039 59.598 75.1397 62.0202 75.1397C64.4423 75.1397 66.4065 77.1039 66.4065 79.526C66.4065 81.9488 64.4423 83.9123 62.0202 83.9123C59.598 83.9123 57.6339 81.9488 57.6339 79.526ZM60.3581 79.526C60.3581 80.4441 61.1021 81.1881 62.0202 81.1881C62.9382 81.1881 63.6823 80.4441 63.6823 79.526C63.6823 78.6086 62.9382 77.8639 62.0202 77.8639C61.1021 77.8639 60.3581 78.6086 60.3581 79.526Z" fill="#015293" stroke="white" stroke-width="0.3"/>
<path d="M12.2708 79.526C12.2708 77.1039 14.235 75.1397 16.6571 75.1397C19.0793 75.1397 21.0434 77.1039 21.0434 79.526C21.0434 81.9488 19.0793 83.9123 16.6571 83.9123C14.235 83.9123 12.2708 81.9488 12.2708 79.526ZM14.995 79.526C14.995 80.4441 15.7391 81.1881 16.6571 81.1881C17.5752 81.1881 18.3192 80.4441 18.3192 79.526C18.3192 78.6086 17.5752 77.8639 16.6571 77.8639C15.7391 77.8639 14.995 78.6086 14.995 79.526Z" fill="#015293" stroke="white" stroke-width="0.3"/>
<path d="M72.7547 79.526C72.7547 77.1039 74.7189 75.1397 77.141 75.1397C79.5632 75.1397 81.5273 77.1039 81.5273 79.526C81.5273 81.9488 79.5632 83.9123 77.141 83.9123C74.7189 83.9123 72.7547 81.9488 72.7547 79.526ZM75.4789 79.526C75.4789 80.4441 76.223 81.1881 77.141 81.1881C78.0591 81.1881 78.8031 80.4441 78.8031 79.526C78.8031 78.6086 78.0591 77.8639 77.141 77.8639C76.223 77.8639 75.4789 78.6086 75.4789 79.526Z" fill="#015293" stroke="white" stroke-width="0.3"/>
</svg>
