<svg width="36" height="50" viewBox="0 0 36 50" fill="none" xmlns="http://www.w3.org/2000/svg">
<path d="M35.0228 50.0001H0.977199C0.439739 50.0001 0 49.5698 0 49.0331V5.09095C0 4.55914 0.434853 4.12402 0.977199 4.12402H9.943C10.4805 4.12402 10.9202 4.55431 10.9202 5.09095C10.9202 5.6276 10.4853 6.05789 9.943 6.05789H1.9544V48.071H34.0505V6.05789H26.0521C25.5147 6.05789 25.0749 5.6276 25.0749 5.09095C25.0749 4.55431 25.5098 4.12402 26.0521 4.12402H35.0228C35.5603 4.12402 36 4.55431 36 5.09095V49.0331C36 49.5649 35.5603 50.0001 35.0228 50.0001Z" fill="#015293"/>
<path d="M26.0521 10.1721H9.94302C9.40556 10.1721 8.96582 9.74183 8.96582 9.20518V0.966931C8.96582 0.435119 9.40067 0 9.94302 0H10.974C12.4104 0 13.5831 1.16032 13.5831 2.58171L13.6271 2.65423H22.3779L22.4218 2.58171C22.4218 1.16032 23.5945 0 25.031 0H26.0521C26.5896 0 27.0293 0.430284 27.0293 0.966931V9.20518C27.0293 9.737 26.5896 10.1721 26.0521 10.1721ZM10.9153 8.23825H25.0749V1.93386H25.0261C24.6645 1.93386 24.3714 2.22394 24.3714 2.58171C24.3714 3.69851 23.4723 4.58809 22.373 4.58809H13.6271C12.5228 4.58809 11.6287 3.69851 11.6287 2.61071C11.6287 2.22394 11.3355 1.93386 10.974 1.93386H10.9202V8.23825H10.9153Z" fill="#015293"/>
<path d="M28.0944 22.7761H14.9804C14.4429 22.7761 14.0032 22.3459 14.0032 21.8092C14.0032 21.2774 14.438 20.8423 14.9804 20.8423H28.0944C28.6318 20.8423 29.0716 21.2726 29.0716 21.8092C29.0716 22.341 28.6318 22.7761 28.0944 22.7761Z" fill="#015293"/>
<path d="M28.0944 26.9629H14.9804C14.4429 26.9629 14.0032 26.5326 14.0032 25.996C14.0032 25.4642 14.438 25.0291 14.9804 25.0291H28.0944C28.6318 25.0291 29.0716 25.4593 29.0716 25.996C29.0716 26.5278 28.6318 26.9629 28.0944 26.9629Z" fill="#015293"/>
<path d="M28.0944 31.1497H14.9804C14.4429 31.1497 14.0032 30.7194 14.0032 30.1828C14.0032 29.6509 14.438 29.2158 14.9804 29.2158H28.0944C28.6318 29.2158 29.0716 29.6461 29.0716 30.1828C29.0716 30.7146 28.6318 31.1497 28.0944 31.1497Z" fill="#015293"/>
<path d="M28.0944 35.3367H14.9804C14.4429 35.3367 14.0032 34.9064 14.0032 34.3698C14.0032 33.838 14.438 33.4028 14.9804 33.4028H28.0944C28.6318 33.4028 29.0716 33.8331 29.0716 34.3698C29.0716 34.9016 28.6318 35.3367 28.0944 35.3367Z" fill="#015293"/>
<path d="M8.69216 24.9566C8.45763 24.9566 8.22799 24.8695 8.04721 24.7148L6.41528 23.2983C6.00975 22.9454 5.97066 22.3362 6.32734 21.9349C6.68401 21.5336 7.29965 21.495 7.70519 21.8479L8.58955 22.6166L10.7785 20.0591C11.1254 19.653 11.741 19.5998 12.1563 19.9479C12.5667 20.2911 12.6205 20.9003 12.2687 21.3112L9.43971 24.6181C9.2687 24.8164 9.02929 24.9372 8.76545 24.9566C8.73613 24.9566 8.7117 24.9566 8.69216 24.9566Z" fill="#015293"/>
<path d="M8.69216 30.6663C8.45763 30.6663 8.22799 30.5793 8.04721 30.4246L6.41528 29.008C6.00975 28.6551 5.97066 28.0459 6.32734 27.6446C6.68401 27.2434 7.29965 27.2047 7.70519 27.5576L8.58955 28.3263L10.7785 25.7688C11.1254 25.3627 11.741 25.3095 12.1563 25.6576C12.5667 26.0008 12.6205 26.61 12.2687 27.021L9.43971 30.3279C9.2687 30.5261 9.02929 30.6469 8.76545 30.6663C8.73613 30.6663 8.7117 30.6663 8.69216 30.6663Z" fill="#015293"/>
<path d="M8.69216 36.2649C8.45763 36.2649 8.22799 36.1779 8.04721 36.0232L6.41528 34.6066C6.00975 34.2537 5.97066 33.6445 6.32734 33.2433C6.68401 32.842 7.29965 32.8033 7.70519 33.1562L8.58955 33.9249L10.7785 31.3674C11.1254 30.9613 11.7459 30.9081 12.1563 31.2562C12.5667 31.5995 12.6205 32.2086 12.2687 32.6196L9.43971 35.9265C9.2687 36.1247 9.02929 36.2456 8.76545 36.2649C8.73613 36.2649 8.7117 36.2649 8.69216 36.2649Z" fill="#015293"/>
</svg>
