<svg width="49" height="45" viewBox="0 0 49 45" fill="none" xmlns="http://www.w3.org/2000/svg">
<path d="M44.8326 3.8535C44.7096 3.78739 44.5772 3.74488 44.4305 3.73544V0.944485C44.4305 0.425018 44.0096 0 43.4845 0H39.18C38.6597 0 38.234 0.425018 38.234 0.944485V3.73544C37.7373 3.76377 37.3447 4.1699 37.3447 4.6752V37.7086C37.3447 38.1855 37.7042 38.5822 38.1678 38.6436C38.9908 40.1878 40.0788 42.2279 40.391 42.8324V44.0602C40.391 44.5797 40.812 45.0047 41.337 45.0047C41.8573 45.0047 42.283 44.5797 42.283 44.0602V42.8324C42.5952 42.2327 43.6879 40.1878 44.511 38.6483C44.9698 38.5869 45.3246 38.1903 45.3246 37.7133V5.94553C46.4503 6.39889 47.1126 7.31504 47.1126 8.56648V18.7905C47.1126 19.31 47.5335 19.735 48.0586 19.735C48.5789 19.735 49.0046 19.31 49.0046 18.7905V8.56648C48.9999 6.12499 47.3396 4.3163 44.8326 3.8535ZM39.2321 5.61969H43.4277V24.4999H39.2321V5.61969ZM42.5385 1.88897V3.73072H40.1213V1.88897H42.5385ZM43.1014 37.2599C42.2972 38.7617 41.7296 39.8195 41.3323 40.5656C40.9349 39.8148 40.372 38.7569 39.5726 37.2599C39.4922 37.1088 39.374 36.986 39.2368 36.901V26.3842H43.4325V36.9058C43.2953 36.9908 43.177 37.1135 43.1014 37.2599Z" fill="#015293"/>
<path d="M22.2082 17.251H9.51708C8.99676 17.251 8.57104 16.826 8.57104 16.3065C8.57104 15.7871 8.99203 15.3621 9.51708 15.3621H22.2082C22.7285 15.3621 23.1542 15.7871 23.1542 16.3065C23.1542 16.8307 22.7332 17.251 22.2082 17.251Z" fill="#015293"/>
<path d="M14.1102 12.9537H9.51244C8.99212 12.9537 8.56641 12.5287 8.56641 12.0092C8.56641 11.4897 8.98739 11.0647 9.51244 11.0647H14.1102C14.6305 11.0647 15.0562 11.4897 15.0562 12.0092C15.0562 12.5287 14.6352 12.9537 14.1102 12.9537Z" fill="#015293"/>
<path d="M14.1102 33.7181H9.51244C8.99212 33.7181 8.56641 33.2931 8.56641 32.7736C8.56641 32.2541 8.98739 31.8291 9.51244 31.8291H14.1102C14.6305 31.8291 15.0562 32.2541 15.0562 32.7736C15.0562 33.2931 14.6352 33.7181 14.1102 33.7181Z" fill="#015293"/>
<path d="M20.3776 21.3973H9.51708C8.99676 21.3973 8.57104 20.9723 8.57104 20.4528C8.57104 19.9333 8.99203 19.5083 9.51708 19.5083H20.3776C20.8979 19.5083 21.3236 19.9333 21.3236 20.4528C21.3189 20.977 20.8979 21.3973 20.3776 21.3973Z" fill="#015293"/>
<path d="M22.2082 25.4871H9.51708C8.99676 25.4871 8.57104 25.0621 8.57104 24.5426C8.57104 24.0232 8.99203 23.5981 9.51708 23.5981H22.2082C22.7285 23.5981 23.1542 24.0232 23.1542 24.5426C23.1542 25.0668 22.7332 25.4871 22.2082 25.4871Z" fill="#015293"/>
<path d="M34.8662 12.217C34.8662 11.91 34.7196 11.6361 34.4925 11.4661L23.3766 0.368383C23.3151 0.311714 23.2489 0.26449 23.1779 0.221988C23.159 0.212543 23.1401 0.203098 23.1212 0.193653C23.0502 0.160596 22.9745 0.127539 22.8988 0.113372C22.8941 0.113372 22.8894 0.113372 22.8894 0.113372C22.8279 0.0992048 22.7664 0.0944824 22.7049 0.0944824H0.946037C0.425717 0.0944824 0 0.519501 0 1.03897V43.9611C0 44.4806 0.420987 44.9056 0.946037 44.9056H33.906C34.4263 44.9056 34.852 44.4806 34.852 43.9611V12.3445C34.8567 12.302 34.8662 12.2595 34.8662 12.217ZM31.626 11.2725H23.6509V3.31518L23.6888 3.35296L31.626 11.2725ZM1.89207 43.0166V1.97873H21.7636V12.217C21.7636 12.7364 22.1846 13.1614 22.7096 13.1614H32.9647V43.0166H1.89207Z" fill="#015293"/>
</svg>
