<svg width="12" height="12" viewBox="0 0 12 12" fill="none" xmlns="http://www.w3.org/2000/svg">
<path d="M11.64 7.31497L10.537 6.45248C10.5712 6.15145 10.5712 5.84751 10.537 5.54648L11.641 4.68349C11.8479 4.51688 11.9032 4.2247 11.7715 3.99399L10.624 2.0105C10.4918 1.77833 10.2104 1.67694 9.96052 1.77151L8.66052 2.29452C8.41623 2.11728 8.15455 1.96534 7.87951 1.84103L7.68001 0.460024C7.64404 0.1949 7.41658 -0.00216177 7.14902 1.79056e-05H4.84903C4.5837 -0.00157584 4.35807 0.193283 4.32103 0.456016L4.12104 1.841C3.84685 1.96651 3.58559 2.11857 3.34105 2.29501L2.03753 1.771C1.79026 1.67352 1.50904 1.77369 1.37903 2.00549L0.230527 3.99249C0.0953165 4.22358 0.15098 4.51896 0.361026 4.68499L1.46401 5.54749C1.42949 5.8485 1.42949 6.15248 1.46401 6.45349L0.360019 7.31598C0.152785 7.48236 0.0972384 7.7747 0.229027 8.00549L1.37603 9.98949C1.50803 10.2218 1.78968 10.3233 2.03952 10.2285L3.33952 9.70547C3.58402 9.8828 3.84586 10.0349 4.12102 10.1595L4.32101 11.5395C4.35621 11.8039 4.58227 12.001 4.84901 12H7.14899C7.41482 12.0021 7.64118 11.8072 7.67849 11.544L7.87848 10.159C8.15265 10.0334 8.41389 9.88137 8.65848 9.70498L9.96347 10.2295C10.2107 10.3267 10.4918 10.2266 10.622 9.99499L11.774 8C11.9029 7.76961 11.8462 7.47979 11.64 7.31497ZM5.99901 8.49997C4.61831 8.49997 3.49901 7.38069 3.49901 5.99997C3.49901 4.61925 4.61829 3.49997 5.99901 3.49997C7.37973 3.49997 8.49901 4.61925 8.49901 5.99997C8.49735 7.38001 7.37903 8.49833 5.99901 8.49997Z" fill="#C9D1EA"/>
</svg>
