<svg width="91" height="84" viewBox="0 0 91 84" fill="none" xmlns="http://www.w3.org/2000/svg">
<circle cx="66" cy="59" r="19" fill="white"/>
<g clip-path="url(#clip0)">
<path d="M72.4365 22.4224H64.1669V19.557C64.1669 18.3849 63.3751 17.3963 62.2991 17.092V6.56036C62.2991 3.53136 59.8349 1.0672 56.8059 1.0672H49.3481C46.3191 1.0672 43.8549 3.53136 43.8549 6.56036V17.0922C42.7789 17.3964 41.9873 18.385 41.9873 19.557V22.4224L33.0122 22.4226V19.557C33.0122 18.385 32.2206 17.3964 31.1445 17.0922V6.56036C31.1445 3.53136 28.6803 1.0672 25.6513 1.0672H18.1935C15.1645 1.0672 12.7003 3.53136 12.7003 6.56036V17.0922C11.6243 17.3964 10.8325 18.385 10.8325 19.5572V22.4227H2.56348C1.15005 22.4227 0 23.5728 0 24.9862V71.3697C0 72.7832 1.15005 73.9332 2.56348 73.9332H72.4365C73.85 73.9332 75 72.7832 75 71.3697V24.9859C75 23.5723 73.85 22.4224 72.4365 22.4224ZM49.3481 3.26447H56.8059C58.6232 3.26447 60.1018 4.74308 60.1018 6.56036V16.9937H46.0522V6.56036C46.0522 4.74293 47.5308 3.26447 49.3481 3.26447ZM44.1845 19.557C44.1845 19.355 44.3487 19.1908 44.5507 19.1908H61.6034C61.8054 19.1908 61.9696 19.355 61.9696 19.557V22.4224H57.6521C57.0453 22.4224 56.5535 22.9142 56.5535 23.5211C56.5535 24.1279 57.0453 24.6197 57.6521 24.6197H72.4365C72.6385 24.6197 72.8027 24.7839 72.8027 24.9859V56.7036H34.4924V52.3011H66.5208C67.1276 52.3011 67.6194 51.8094 67.6194 51.2025V29.9892C67.6194 29.3823 67.1276 28.8906 66.5208 28.8906H34.4924V24.6197H52.6975C53.3043 24.6197 53.7961 24.1279 53.7961 23.5211C53.7961 22.9142 53.3043 22.4224 52.6975 22.4224H44.1845V19.557ZM34.4924 31.0879H65.4221V50.1039H34.4924V31.0879ZM18.1935 3.26447H25.6513C27.4686 3.26447 28.9472 4.74308 28.9472 6.56036V16.9937H14.8976V6.56036C14.8976 4.74293 16.3762 3.26447 18.1935 3.26447ZM13.0298 19.557C13.0298 19.355 13.194 19.1908 13.396 19.1908H30.4487C30.6507 19.1908 30.8149 19.355 30.8149 19.557V22.4226H13.0298V19.557ZM2.19727 24.986C2.19727 24.784 2.36147 24.6198 2.56348 24.6198H32.2951V29.6963C32.2951 29.7461 32.2997 29.7947 32.306 29.8427C32.2995 29.8908 32.2951 29.9394 32.2951 29.9892V51.2025C32.2951 51.2523 32.2997 51.3009 32.306 51.349C32.2995 51.397 32.2951 51.4457 32.2951 51.4955V56.7036H2.19727V24.986ZM72.4365 71.7357H2.56348C2.36147 71.7357 2.19727 71.5714 2.19727 71.3694V58.9008H72.8027V71.3694C72.8027 71.5714 72.6385 71.7357 72.4365 71.7357Z" fill="#015293"/>
<path d="M23.7444 28.8912H10.7476C9.33413 28.8912 8.18408 30.0412 8.18408 31.4546V37.4138C8.18408 38.0207 8.67583 38.5124 9.28271 38.5124C9.8896 38.5124 10.3813 38.0207 10.3813 37.4138V35.3812H24.1106V45.8107H10.3813V42.3685C10.3813 41.7616 9.8896 41.2698 9.28271 41.2698C8.67583 41.2698 8.18408 41.7616 8.18408 42.3685V49.7372C8.18408 51.1506 9.33413 52.3007 10.7476 52.3007H23.7444C25.1578 52.3007 26.3079 51.1506 26.3079 49.7372V31.4546C26.3079 30.0412 25.1578 28.8912 23.7444 28.8912ZM10.3813 33.1839V31.4546C10.3813 31.2526 10.5456 31.0884 10.7476 31.0884H23.7444C23.9464 31.0884 24.1106 31.2526 24.1106 31.4546V33.1839H10.3813ZM23.7444 50.1034H10.7476C10.5456 50.1034 10.3813 49.9392 10.3813 49.7372V48.008H24.1106V49.7372C24.1106 49.9391 23.9464 50.1034 23.7444 50.1034Z" fill="#015293"/>
<path d="M66.911 61.6524H44.758C44.1511 61.6524 43.6594 62.1442 43.6594 62.751C43.6594 63.3579 44.1511 63.8497 44.758 63.8497H50.5822V66.6983H21.6248V63.8497H39.8032C40.4101 63.8497 40.9018 63.3579 40.9018 62.751C40.9018 62.1442 40.4101 61.6524 39.8032 61.6524H8.0896C6.67617 61.6524 5.52612 62.8025 5.52612 64.2159V66.3321C5.52612 67.7456 6.67617 68.8956 8.0896 68.8956H66.9111C68.3246 68.8956 69.4746 67.7456 69.4746 66.3321V64.2159C69.4745 62.8025 68.3246 61.6524 66.911 61.6524V61.6524ZM59.4914 63.8497V66.6983H57.2341V63.8497H59.4914ZM52.7795 63.8497H55.0368V66.6983H52.7795V63.8497ZM7.72339 66.3323V64.2159C7.72339 64.0139 7.8876 63.8497 8.0896 63.8497H19.4275V66.6983H8.0896C7.8876 66.6985 7.72339 66.5343 7.72339 66.3323ZM67.2772 66.3323C67.2772 66.5343 67.113 66.6985 66.911 66.6985H61.6887V63.8497H66.911C67.113 63.8497 67.2772 64.0139 67.2772 64.2159V66.3323Z" fill="#015293"/>
<path d="M61.2878 36.0172L56.8833 38.8836L55.4208 37.0115C55.0481 36.5342 54.3596 36.4489 53.8813 36.8199L43.8652 44.594L41.7158 42.6261C41.3555 42.2966 40.8211 42.2441 40.4037 42.4975L38.0708 43.9142C37.5521 44.229 37.387 44.9049 37.702 45.4234C38.0168 45.942 38.6928 46.1072 39.2112 45.7923L40.8398 44.8033L43.0648 46.8405C43.274 47.032 43.54 47.1288 43.8067 47.1288C44.0437 47.1288 44.2813 47.0525 44.4803 46.8981L54.3633 39.2273L55.772 41.0305C56.1231 41.4799 56.7593 41.5858 57.237 41.275L62.4861 37.859C62.9947 37.5279 63.1387 36.8475 62.8077 36.3389C62.4768 35.83 61.7959 35.6862 61.2878 36.0172V36.0172Z" fill="#015293"/>
<path d="M38.6404 39.7417H39.7236C40.3305 39.7417 40.8223 39.25 40.8223 38.6431C40.8223 38.0362 40.3305 37.5444 39.7236 37.5444H38.6404C38.0335 37.5444 37.5417 38.0362 37.5417 38.6431C37.5417 39.25 38.0336 39.7417 38.6404 39.7417Z" fill="#015293"/>
<path d="M38.6404 36.1927H39.7236C40.3305 36.1927 40.8223 35.7009 40.8223 35.0941C40.8223 34.4872 40.3305 33.9954 39.7236 33.9954H38.6404C38.0335 33.9954 37.5417 34.4872 37.5417 35.0941C37.5417 35.7009 38.0336 36.1927 38.6404 36.1927Z" fill="#015293"/>
<path d="M43.6509 39.7417H44.734C45.3409 39.7417 45.8326 39.25 45.8326 38.6431C45.8326 38.0362 45.3409 37.5444 44.734 37.5444H43.6509C43.044 37.5444 42.5522 38.0362 42.5522 38.6431C42.5522 39.25 43.0441 39.7417 43.6509 39.7417Z" fill="#015293"/>
<path d="M43.6509 36.1927H44.734C45.3409 36.1927 45.8326 35.7009 45.8326 35.0941C45.8326 34.4872 45.3409 33.9954 44.734 33.9954H43.6509C43.044 33.9954 42.5522 34.4872 42.5522 35.0941C42.5522 35.7009 43.0441 36.1927 43.6509 36.1927Z" fill="#015293"/>
</g>
<path d="M74.4063 39.493L74.4063 39.4931C74.8182 40.0656 75.5024 40.349 76.1992 40.2357L74.4063 39.493ZM74.4063 39.493C72.9212 37.4291 70.0683 36.8617 67.9066 38.2L67.9066 38.2M74.4063 39.493L67.9066 38.2M67.9066 38.2C67.3066 38.5715 66.5658 38.5715 65.966 38.2L65.966 38.2M67.9066 38.2L65.966 38.2M65.966 38.2C63.8042 36.8616 60.9514 37.4291 59.4662 39.4928L59.4662 39.4929M65.966 38.2L59.4662 39.4929M59.4662 39.4929C59.0542 40.0656 58.3698 40.3491 57.6733 40.2355C55.1641 39.8264 52.7453 41.4422 52.1632 43.9173C52.0016 44.6041 51.4778 45.1279 50.791 45.2895L50.791 45.2895M59.4662 39.4929L50.791 45.2895M50.791 45.2895C48.3159 45.8717 46.6999 48.2904 47.1092 50.7997M50.791 45.2895L47.1092 50.7997M47.1092 50.7997C47.2228 51.4961 46.9393 52.1805 46.3665 52.5926C44.3027 54.0777 43.7353 56.9306 45.0737 59.0924M47.1092 50.7997L45.0737 59.0924M45.0737 59.0924C45.0737 59.0924 45.0737 59.0923 45.0737 59.0923L45.6261 58.7503L45.0737 59.0924ZM45.0737 61.033C43.7353 63.1947 44.3027 66.0477 46.3665 67.5327C46.9393 67.9448 47.2227 68.6293 47.1092 69.3256C46.6999 71.835 48.3159 74.2536 50.791 74.8358L50.9398 74.203L45.0737 61.033ZM45.0737 61.033L45.6262 61.3751L45.0737 61.033C45.0737 61.033 45.0737 61.033 45.0737 61.033ZM86.2362 62.6197L86.2362 62.6197C85.2607 61.0439 85.2607 59.0816 86.2361 57.5058L86.2361 57.5057C86.743 56.6871 86.5271 55.6017 85.7455 55.0393L85.7455 55.0393C84.2412 53.9568 83.4901 52.1438 83.7885 50.3146C83.9435 49.3644 83.3286 48.4441 82.3913 48.2236C80.5872 47.7993 79.1996 46.4117 78.7752 44.6076C78.5548 43.6704 77.6343 43.0556 76.6842 43.2105C74.8551 43.5089 73.0419 42.7577 71.9596 41.2534C71.3972 40.4718 70.3117 40.256 69.4932 40.7628L69.4931 40.7628C67.9173 41.7385 65.9549 41.7385 64.3791 40.7628C63.5605 40.256 62.475 40.4719 61.9127 41.2534L61.9127 41.2535C60.8301 42.7577 59.017 43.5087 57.1881 43.2105L86.2362 62.6197ZM86.2362 62.6197C86.7431 63.4383 86.5271 64.5239 85.7456 65.0862L85.7456 65.0862M86.2362 62.6197L85.7456 65.0862M88.2463 61.3752L88.7989 61.033C90.1373 63.1948 89.5699 66.0477 87.5061 67.5327C86.9334 67.9448 86.6499 68.6293 86.7634 69.3257C87.1727 71.835 85.5567 74.2536 83.0817 74.8358C82.3948 74.9974 81.871 75.5212 81.7094 76.208C81.7094 76.2081 81.7094 76.2081 81.7094 76.2081L81.0767 76.0592L88.2463 61.3752ZM88.2463 61.3752L88.7989 61.033C88.4275 60.4332 88.4275 59.6924 88.7989 59.0925C90.1373 56.9307 89.5699 54.0778 87.5061 52.5927C86.9333 52.1806 86.6499 51.4962 86.7634 50.7999C87.1727 48.2905 85.5567 45.8718 83.0816 45.2897C82.3948 45.1281 81.871 44.6043 81.7094 43.9175C81.1272 41.4425 78.7085 39.8264 76.1995 40.2357L88.2463 61.3752ZM85.7456 65.0862C84.2413 66.1687 83.4903 67.9816 83.7886 69.8108L83.7886 69.8108M85.7456 65.0862L83.7886 69.8108M83.7886 69.8108C83.9436 70.761 83.3287 71.6813 82.3914 71.9018C80.5873 72.3262 79.1998 73.7137 78.7754 75.5179C78.5549 76.4551 77.6343 77.07 76.6844 76.9151C74.8551 76.6164 73.0421 77.3678 71.9597 78.8721L72.4874 79.2517M83.7886 69.8108L72.4874 79.2517M72.4874 79.2517L71.9597 78.8721C71.3974 79.6537 70.312 79.8696 69.4933 79.3627L69.4933 79.3627M72.4874 79.2517L69.4933 79.3627M69.4933 79.3627C67.9175 78.3871 65.9552 78.3872 64.3794 79.3627L64.3793 79.3627M69.4933 79.3627L64.3793 79.3627M64.3793 79.3627C63.5606 79.8696 62.4752 79.6536 61.9129 78.8721C60.9884 77.5872 59.5298 76.8506 57.9812 76.8506C57.7184 76.8506 57.4532 76.8719 57.1883 76.915L57.1881 76.9151M64.3793 79.3627L57.1881 76.9151M57.1881 76.9151C56.2381 77.0701 55.3176 76.4552 55.0971 75.5179C54.6727 73.7138 53.2852 72.3263 51.4811 71.9019C50.5438 71.6814 49.9289 70.7611 50.0839 69.8109L49.4424 69.7063M57.1881 76.9151L49.4424 69.7063M49.4424 69.7063L50.0839 69.8109C50.3822 67.9817 49.6311 66.1687 48.1269 65.0863L48.1268 65.0862M49.4424 69.7063L48.1268 65.0862M48.1268 65.0862C47.3452 64.5239 47.1294 63.4384 47.6362 62.6198L47.6362 62.6198M48.1268 65.0862L47.6362 62.6198M47.6362 62.6198C48.6119 61.044 48.6119 59.0817 47.6363 57.5058L47.6362 57.5058M47.6362 62.6198L47.6362 57.5058M47.6362 57.5058C47.1294 56.6872 47.3453 55.6017 48.1268 55.0394L48.1269 55.0394M47.6362 57.5058L48.1269 55.0394M48.1269 55.0394C49.6312 53.9569 50.3821 52.1439 50.0839 50.3147L50.0839 50.3147M48.1269 55.0394L50.0839 50.3147M50.0839 50.3147C49.9289 49.3645 50.5438 48.4442 51.481 48.2237M50.0839 50.3147L51.481 48.2237M51.481 48.2237C53.2851 47.7993 54.6727 46.4118 55.0971 44.6077M51.481 48.2237L55.0971 44.6077M55.0971 44.6077C55.3175 43.6705 56.238 43.0556 57.1881 43.2105L55.0971 44.6077Z" fill="#5AB772" stroke="white" stroke-width="1.3"/>
<path d="M79.2816 52.5794C78.8494 51.8681 79.0756 50.9411 79.787 50.5088C80.4984 50.0765 81.4253 50.3029 81.8575 51.0143C83.511 53.7356 84.3845 56.8646 84.3845 60.0629C84.3845 69.6844 76.5579 77.5111 66.9363 77.5111C57.3148 77.5111 49.4882 69.6844 49.4882 60.0629C49.4882 50.4414 57.3148 42.6148 66.9363 42.6148C70.125 42.6148 73.246 43.4834 75.9617 45.1276L79.2816 52.5794ZM79.2816 52.5794C80.6477 54.8277 81.3704 57.4153 81.3704 60.0628C81.3704 68.0212 74.8947 74.4969 66.9363 74.4969C58.9779 74.4969 52.5023 68.0212 52.5023 60.0628C52.5023 52.1044 58.9779 45.6288 66.9363 45.6288C69.576 45.6288 72.157 46.3474 74.4006 47.706L74.7348 47.154L74.4006 47.706C75.1125 48.137 76.0393 47.9095 76.4704 47.1973M79.2816 52.5794L76.4704 47.1973M76.4704 47.1973C76.9013 46.4855 76.6739 45.5588 75.9617 45.1277L76.4704 47.1973Z" fill="#5AB772" stroke="white" stroke-width="1.3"/>
<path d="M59.2567 56.6347V58.7705L57.1992 55.7911L57.1992 55.7911C56.8244 55.2485 56.1403 55.0126 55.5107 55.2088C54.8809 55.405 54.4521 55.988 54.4521 56.6476V63.4912C54.4521 64.3235 55.1268 64.9982 55.9591 64.9982C56.7914 64.9982 57.4661 64.3235 57.4661 63.4912V61.482L59.3465 64.2049L59.3469 64.2055C59.7472 64.7836 60.4536 65.066 61.1453 64.8502L61.1454 64.8501C61.8535 64.629 62.2708 63.9735 62.2708 63.2602V56.6349C62.2708 55.8025 61.596 55.1278 60.7637 55.1278C59.9315 55.1278 59.2567 55.8022 59.2567 56.6347Z" fill="#5AB772" stroke="white" stroke-width="1.3"/>
<path d="M67.0673 58.1417C67.8997 58.1417 68.5744 57.467 68.5744 56.6346C68.5744 55.8023 67.8997 55.1276 67.0673 55.1276H64.1783C63.346 55.1276 62.6713 55.8023 62.6713 56.6346V63.491C62.6713 64.3234 63.346 64.9981 64.1783 64.9981H67.0673C67.8997 64.9981 68.5744 64.3234 68.5744 63.491C68.5744 62.6587 67.8997 61.984 67.0673 61.984H65.6854V61.5699H66.8544C67.6867 61.5699 68.3614 60.8952 68.3614 60.0628C68.3614 59.2305 67.6867 58.5558 66.8544 58.5558H65.6854V58.1417H67.0673Z" fill="#5AB772" stroke="white" stroke-width="1.3"/>
<path d="M72.2559 57.8255L72.7585 56.2017L73.3581 56.3873L72.7585 56.2017C73.0046 55.4066 73.8486 54.9616 74.6437 55.2077L72.2559 57.8255ZM72.2559 57.8255L71.9626 56.3424L71.9625 56.3423C71.801 55.526 71.0088 54.9951 70.192 55.1563L70.1917 55.1564C69.3752 55.3179 68.8443 56.1107 69.0057 56.9271L69.0057 56.9272L70.3416 63.6806L70.3418 63.6814C70.356 63.7526 70.3752 63.8229 70.3996 63.8916L70.3998 63.8923C70.6351 64.5554 71.2633 64.9981 71.9658 64.9981H71.9727V64.9981L71.9771 64.9981C72.6843 64.9933 73.3116 64.5407 73.5392 63.8712L73.5397 63.8697L73.5399 63.8691C73.5423 63.862 73.5475 63.8468 73.5529 63.8289L74.1967 61.7487L74.8385 63.8318L74.839 63.8335C74.8442 63.8502 74.8508 63.8708 74.8589 63.8935C74.859 63.8937 74.8591 63.894 74.8592 63.8943L75.4711 63.6751M72.2559 57.8255L78.0492 63.6795M75.4711 63.6751C75.6144 64.0784 75.997 64.3481 76.4245 64.3481H76.4314C76.8617 64.3452 77.2439 64.0696 77.3824 63.6621C77.3945 63.6266 77.4043 63.5903 77.4116 63.5534M75.4711 63.6751C75.467 63.6636 75.4633 63.652 75.4597 63.6404M75.4711 63.6751L75.4597 63.6404M77.4116 63.5534L78.0491 63.6803L78.0492 63.6795M77.4116 63.5534L78.0492 63.6795M77.4116 63.5534L78.7528 56.8146C78.8452 56.3503 78.5437 55.8991 78.0796 55.8067C77.6152 55.7143 77.1641 56.0157 77.0717 56.4799L76.5441 59.1308L76.1414 57.8239M78.0492 63.6795L79.3903 56.9414L79.3903 56.9414C79.5527 56.1252 79.0228 55.3317 78.2064 55.1692L78.2064 55.1692C77.39 55.0067 76.5966 55.5367 76.4342 56.353L76.4342 56.353L76.1414 57.8239M76.1414 57.8239L75.6383 56.1909L75.4426 55.5554L75.2882 55.6069C75.117 55.427 74.8987 55.2866 74.6438 55.2077L76.1414 57.8239ZM72.9238 63.662C72.7852 64.0695 72.4031 64.3452 71.9727 64.3481H71.9658L72.9238 63.662ZM72.9238 63.662C72.9263 63.6546 72.9288 63.6471 72.931 63.6396L73.8573 60.647L72.9238 63.662ZM75.4597 63.6404L74.5376 60.6474L75.4597 63.6404ZM78.0796 55.8066L78.0796 55.8066L78.0796 55.8066Z" fill="#5AB772" stroke="white" stroke-width="1.3"/>
<path d="M79.3313 47.6681L79.3313 47.6681L79.33 47.6669C79.0493 47.3876 78.6648 47.2266 78.2657 47.2266C77.8674 47.2266 77.4818 47.3871 77.2006 47.6669L77.2006 47.6669L77.1993 47.6681C76.917 47.9504 76.7587 48.3373 76.7587 48.7336C76.7587 49.13 76.917 49.5169 77.1993 49.7992L77.1993 49.7992L77.2007 49.8005C77.4815 50.0797 77.866 50.2407 78.2657 50.2407C78.6638 50.2407 79.0501 50.0803 79.3313 49.7992L78.8717 49.3396L79.3313 49.7992C79.6124 49.518 79.7728 49.1317 79.7728 48.7336C79.7728 48.3356 79.6124 47.9492 79.3313 47.6681Z" fill="#5AB772" stroke="white" stroke-width="1.3"/>
<defs>
<clipPath id="clip0">
<rect width="75" height="75" fill="white"/>
</clipPath>
</defs>
</svg>
