<svg width="80" height="80" viewBox="0 0 80 80" fill="none" xmlns="http://www.w3.org/2000/svg">
<path d="M51.2472 7.9231H26.9043C26.257 7.9231 25.7324 8.44763 25.7324 9.09497C25.7324 9.74232 26.257 10.2668 26.9043 10.2668H51.2472C51.8945 10.2668 52.4191 9.74232 52.4191 9.09497C52.4191 8.44763 51.8945 7.9231 51.2472 7.9231Z" fill="#5AB772"/>
<path d="M51.2472 14.7828H26.9043C26.257 14.7828 25.7324 15.3074 25.7324 15.9547C25.7324 16.6021 26.257 17.1266 26.9043 17.1266H51.2472C51.8945 17.1266 52.4191 16.6021 52.4191 15.9547C52.4191 15.3074 51.8945 14.7828 51.2472 14.7828Z" fill="#5AB772"/>
<path d="M73.6762 40.5056H66.7191V37.234C66.7191 32.9221 63.2111 29.4143 58.8993 29.4143H45.7242C41.4123 29.4143 37.9043 32.9221 37.9043 37.234V40.5056H30.9473C27.4482 40.5056 24.623 43.3426 24.623 46.8298V73.6304C24.623 77.1174 27.4601 79.9546 30.9473 79.9546H73.6763C77.1634 79.9546 80.0006 77.1176 80.0006 73.6304V68.5522C80.0006 67.9049 79.476 67.3804 78.8287 67.3804C78.1814 67.3804 77.6568 67.9049 77.6568 68.5522V73.6304C77.6568 75.8252 75.8712 77.6109 73.6763 77.6109H30.9473C28.7524 77.6109 26.9668 75.8252 26.9668 73.6304V57.0213C28.8135 59.2983 31.5917 60.7908 34.7157 60.9128V62.7021C34.7157 65.0635 36.637 66.9847 38.9984 66.9847C41.3598 66.9847 43.2811 65.0635 43.2811 62.7021V60.921H61.3424V62.7021C61.3424 65.0635 63.2636 66.9847 65.6251 66.9847C67.9865 66.9847 69.9077 65.0635 69.9077 62.7021V60.9128C73.0318 60.7908 75.8099 59.2983 77.6567 57.0213V63.0736C77.6567 63.721 78.1812 64.2455 78.8285 64.2455C79.4759 64.2455 80.0004 63.721 80.0004 63.0736V46.8295C80.0004 43.3436 77.1765 40.5056 73.6762 40.5056ZM40.2481 37.234C40.2481 34.2146 42.7047 31.7581 45.7242 31.7581H58.8993C61.9188 31.7581 64.3754 34.2146 64.3754 37.234V40.5056H61.9349V37.234C61.9349 35.5604 60.5732 34.1987 58.8993 34.1987H45.7242C44.0505 34.1987 42.6887 35.5604 42.6887 37.234V40.5056H40.2481V37.234ZM45.0325 40.5056V37.234C45.0325 36.8528 45.3426 36.5425 45.7242 36.5425H58.8993C59.2807 36.5425 59.5911 36.8526 59.5911 37.234V40.5056H45.0325ZM40.9373 62.7021C40.9373 63.7713 40.0676 64.641 38.9984 64.641C37.9292 64.641 37.0595 63.7713 37.0595 62.7021V58.5128C37.0595 57.4436 37.9292 56.5739 38.9984 56.5739C40.0676 56.5739 40.9373 57.4436 40.9373 58.5128V62.7021ZM67.564 62.7021C67.564 63.7713 66.6943 64.641 65.6251 64.641C64.5558 64.641 63.6861 63.7713 63.6861 62.7021V59.7611C63.6861 59.7571 63.6863 59.753 63.6863 59.7491C63.6863 59.7452 63.6861 59.741 63.6861 59.7371V58.513C63.6861 57.4438 64.5558 56.5741 65.6251 56.5741C66.6943 56.5741 67.564 57.4438 67.564 58.513V62.7021ZM69.9077 58.5667V58.513C69.9077 56.1516 67.9865 54.2303 65.6251 54.2303C63.2636 54.2303 61.3424 56.1516 61.3424 58.513V58.5772H43.2811V58.513C43.2811 56.1516 41.3598 54.2303 38.9984 54.2303C36.637 54.2303 34.7157 56.1516 34.7157 58.513V58.5667C30.4062 58.3497 26.9668 54.7755 26.9668 50.413V46.8295C26.9668 44.6315 28.7482 42.8492 30.9473 42.8492H73.6763C75.8698 42.8492 77.6568 44.6259 77.6568 46.8297V50.413C77.6567 54.7755 74.2173 58.3497 69.9077 58.5667Z" fill="#015293"/>
<path d="M23.1121 77.6109H5.79517C3.89204 77.6109 2.34376 76.0626 2.34376 74.1595V17.8697C2.34376 17.6168 2.37079 17.368 2.4236 17.1266H13.0885C15.3152 17.1266 17.1268 15.315 17.1268 13.0885V2.4236C17.3682 2.37094 17.6169 2.34376 17.8699 2.34376H57.6025C59.5057 2.34376 61.0539 3.89204 61.0539 5.79517V25.9018C61.0539 26.5491 61.5785 27.0737 62.2258 27.0737C62.8732 27.0737 63.3977 26.5491 63.3977 25.9018V5.79517C63.3977 2.5997 60.798 0 57.6025 0H17.8697C16.3218 0 14.8663 0.602658 13.7718 1.69719L1.69719 13.7719C0.602658 14.8665 0 16.3218 0 17.8697V74.1595C0 77.3549 2.5997 79.9546 5.79517 79.9546H23.1121C23.7595 79.9546 24.284 79.4301 24.284 78.7827C24.284 78.1354 23.7595 77.6109 23.1121 77.6109ZM14.7829 4.00111V13.0885C14.7829 14.0227 14.0227 14.7829 13.0883 14.7829H4.00111L14.7829 4.00111Z" fill="#5AB772"/>
</svg>
