<svg width="80" height="80" viewBox="0 0 80 80" fill="none" xmlns="http://www.w3.org/2000/svg">
<path d="M78.8281 48.5306C79.4753 48.5306 80 48.0061 80 47.3587V22.45C80 19.2191 77.3716 16.5906 74.1406 16.5906H61.8494V5.85938C61.8494 2.62844 59.2209 0 55.99 0H24.01C20.7791 0 18.1506 2.62844 18.1506 5.85938V16.5906H5.85938C2.62844 16.5906 0 19.2191 0 22.45V62.2375C0 65.4684 2.62844 68.0969 5.85938 68.0969H34.2612V72.9688H32.7808C29.8084 72.9688 27.3902 75.387 27.3902 78.3594C27.3902 79.2641 28.1261 80 29.0308 80H50.9691C51.8737 80 52.6097 79.2641 52.6097 78.3594C52.6097 75.387 50.1914 72.9688 47.2191 72.9688H45.7386V68.0969H74.1406C77.3716 68.0969 80 65.4684 80 62.2375V52.8273C80 52.18 79.4753 51.6555 78.8281 51.6555C78.1809 51.6555 77.6562 52.18 77.6562 52.8273V62.2375C77.6562 64.1759 76.0792 65.7531 74.1406 65.7531H44.5789C44.5748 65.7531 44.5709 65.7525 44.5669 65.7525C44.5628 65.7525 44.5589 65.7531 44.5548 65.7531H35.4453C35.4412 65.7531 35.4373 65.7525 35.4333 65.7525C35.4292 65.7525 35.4253 65.7531 35.4212 65.7531H5.85938C3.92078 65.7531 2.34375 64.1759 2.34375 62.2375V22.45C2.34375 20.5116 3.92078 18.9344 5.85938 18.9344H18.1506V21.2781H6.32812C5.42344 21.2781 4.6875 22.0141 4.6875 22.9187V62.2375C4.6875 62.8848 5.21219 63.4094 5.85938 63.4094H73.6719C74.5766 63.4094 75.3125 62.6734 75.3125 61.7688V22.9187C75.3125 22.0141 74.5766 21.2781 73.6719 21.2781H61.8494V18.9344H74.1406C76.0792 18.9344 77.6562 20.5116 77.6562 22.45V47.3587C77.6562 48.0059 78.1809 48.5306 78.8281 48.5306ZM36.605 68.0969H43.395V72.9688H36.605V68.0969ZM47.2192 75.3125C48.6573 75.3125 49.8659 76.3139 50.1842 77.6562H29.8158C30.1341 76.3139 31.3427 75.3125 32.7808 75.3125H47.2192ZM18.1506 61.0656H7.03125V23.6219H18.1506V61.0656ZM59.5056 61.0656H20.4944V5.85938C20.4944 3.92094 22.0714 2.34375 24.01 2.34375H55.99C57.9286 2.34375 59.5056 3.92094 59.5056 5.85938V61.0656ZM72.9688 23.6219V61.0656H61.8494V23.6219H72.9688ZM53.4933 42.3438H26.5067C25.8595 42.3438 25.3348 42.8683 25.3348 43.5156C25.3348 44.163 25.8595 44.6875 26.5067 44.6875H53.4933C54.1405 44.6875 54.6652 44.163 54.6652 43.5156C54.6652 42.8683 54.1405 42.3438 53.4933 42.3438ZM40 7.03125C36.7405 7.03125 33.6386 8.06312 31.0297 10.0156C30.5116 10.4033 30.4058 11.138 30.7936 11.6559C31.1814 12.1741 31.9158 12.28 32.4341 11.8922C34.6344 10.2453 37.2506 9.375 40 9.375C46.9788 9.375 52.6562 15.0527 52.6562 22.0312C52.6562 29.0098 46.9788 34.6875 40 34.6875C33.0212 34.6875 27.3438 29.0098 27.3438 22.0312C27.3438 19.7694 27.9503 17.5484 29.098 15.6084C29.4275 15.0516 29.2431 14.3328 28.6861 14.0033C28.1291 13.6739 27.4103 13.8581 27.0808 14.4153C25.7195 16.7161 25 19.3498 25 22.0312C25 30.3023 31.7289 37.0312 40 37.0312C48.2711 37.0312 55 30.3023 55 22.0312C55 13.7602 48.2711 7.03125 40 7.03125ZM34.6006 28.0633C36.2336 29.7114 39.0352 29.7231 40.6769 28.0628L47.9955 20.7441C49.4003 19.3508 49.3247 16.9766 47.8734 15.6559C46.4841 14.3916 44.333 14.4633 42.9769 15.8192L37.6386 21.1575L36.9761 20.495C35.6273 19.1327 33.3567 19.1422 32.0041 20.4948C30.6334 21.8655 30.6333 24.0958 32.0041 25.4666L34.6006 28.0633ZM33.6616 22.1522C34.1125 21.7013 34.87 21.6987 35.3189 22.152L36.4784 23.3117C37.1042 23.9441 38.1709 23.9466 38.7987 23.312L44.6342 17.4766C45.0959 17.0147 45.8417 16.9756 46.2962 17.3892C46.7836 17.8327 46.8081 18.622 46.3384 19.0866L39.0198 26.4053C38.6519 26.7731 38.1614 26.9758 37.6387 26.9758C37.1161 26.9758 36.6256 26.7733 36.258 26.4058L33.6617 23.8094C33.2047 23.3525 33.2047 22.6091 33.6616 22.1522ZM53.4933 49.375H26.5067C25.8595 49.375 25.3348 49.8995 25.3348 50.5469C25.3348 51.1942 25.8595 51.7188 26.5067 51.7188H53.4933C54.1405 51.7188 54.6652 51.1942 54.6652 50.5469C54.6652 49.8995 54.1405 49.375 53.4933 49.375Z" fill="#015293"/>
<path d="M53.4933 42.3438H26.5067C25.8595 42.3438 25.3348 42.8683 25.3348 43.5156C25.3348 44.163 25.8595 44.6875 26.5067 44.6875H53.4933C54.1405 44.6875 54.6652 44.163 54.6652 43.5156C54.6652 42.8683 54.1405 42.3438 53.4933 42.3438ZM40 7.03125C36.7405 7.03125 33.6386 8.06312 31.0297 10.0156C30.5116 10.4033 30.4058 11.138 30.7936 11.6559C31.1814 12.1741 31.9158 12.28 32.4341 11.8922C34.6344 10.2453 37.2506 9.375 40 9.375C46.9788 9.375 52.6562 15.0527 52.6562 22.0312C52.6562 29.0098 46.9788 34.6875 40 34.6875C33.0212 34.6875 27.3438 29.0098 27.3438 22.0312C27.3438 19.7694 27.9503 17.5484 29.098 15.6084C29.4275 15.0516 29.2431 14.3328 28.6861 14.0033C28.1291 13.6739 27.4103 13.8581 27.0808 14.4153C25.7195 16.7161 25 19.3498 25 22.0312C25 30.3023 31.7289 37.0312 40 37.0312C48.2711 37.0312 55 30.3023 55 22.0312C55 13.7602 48.2711 7.03125 40 7.03125ZM34.6006 28.0633C36.2336 29.7114 39.0352 29.7231 40.6769 28.0628L47.9955 20.7441C49.4003 19.3508 49.3247 16.9766 47.8734 15.6559C46.4841 14.3916 44.333 14.4633 42.9769 15.8192L37.6386 21.1575L36.9761 20.495C35.6273 19.1327 33.3567 19.1422 32.0041 20.4948C30.6334 21.8655 30.6333 24.0958 32.0041 25.4666L34.6006 28.0633ZM33.6616 22.1522C34.1125 21.7013 34.87 21.6988 35.3189 22.152L36.4784 23.3117C37.1042 23.9441 38.1709 23.9466 38.7987 23.312L44.6342 17.4766C45.0959 17.0147 45.8417 16.9756 46.2962 17.3892C46.7836 17.8327 46.8081 18.622 46.3384 19.0866L39.0198 26.4053C38.6519 26.7731 38.1614 26.9758 37.6388 26.9758C37.1161 26.9758 36.6256 26.7733 36.258 26.4058L33.6617 23.8094C33.2047 23.3525 33.2047 22.6091 33.6616 22.1522ZM53.4933 49.375H26.5067C25.8595 49.375 25.3348 49.8995 25.3348 50.5469C25.3348 51.1942 25.8595 51.7188 26.5067 51.7188H53.4933C54.1405 51.7188 54.6652 51.1942 54.6652 50.5469C54.6652 49.8995 54.1405 49.375 53.4933 49.375Z" fill="#5AB772"/>
</svg>
