<svg width="163" height="35" viewBox="0 0 163 35" fill="none" xmlns="http://www.w3.org/2000/svg">
<g clip-path="url(#clip0)">
<path d="M107.966 15.9179L108.065 14.3362C108.263 14.4349 108.56 14.4349 108.857 14.4349C110.242 14.4349 110.341 12.3588 110.341 6.4264H116.873V15.9179H114.894V8.00842H112.123C112.123 13.1498 111.925 16.0169 109.352 16.0169C108.857 16.1156 108.362 16.0169 107.966 15.9179ZM119.149 6.52538H121.029V9.98579C121.029 10.9745 120.93 12.7542 120.93 13.6439L124.988 6.5251H127.066V16.0169H125.186V12.5565C125.186 11.5678 125.285 9.78811 125.285 8.8984L121.227 16.0169H119.149V6.52538H119.149ZM128.649 15.8189L128.847 14.1382C129.54 14.5336 130.43 14.6326 131.222 14.6326C132.113 14.6326 133.201 14.4349 133.201 13.2482C133.201 11.9629 131.815 11.8639 130.925 11.8639C130.727 11.8639 130.529 11.8639 130.232 11.8639V10.3809C130.43 10.3809 130.628 10.3809 130.727 10.3809C131.618 10.3809 133.102 10.1832 133.102 8.99655C133.102 8.00786 132.112 7.81018 131.321 7.81018C130.628 7.81018 129.638 8.00786 129.045 8.20554L128.847 6.72251C129.638 6.52483 130.727 6.32715 131.618 6.32715C133.498 6.32715 134.982 7.01917 134.982 8.79886C134.982 9.78755 134.29 10.5786 133.201 10.8749C134.389 11.0726 135.18 12.0616 135.18 13.149C135.18 15.2253 133.597 16.0161 131.42 16.0161C130.43 16.2146 129.441 16.0169 128.649 15.8189ZM137.061 6.52538H138.941V9.98579C138.941 10.9745 138.842 12.7542 138.842 13.6439L142.9 6.5251H144.978V16.0169H143.098V12.5565C143.098 11.5678 143.196 9.78811 143.196 8.8984L139.139 16.0169H137.061V6.52538ZM147.353 6.52538H149.332V10.2825H153.092V6.52538H155.072V16.0169H153.092V11.8642H149.332V16.0169H147.353V6.52538H147.353ZM157.249 6.52538H162.791V8.10739H159.129V16.0169H157.15V6.52538H157.249ZM85.8979 30.2539H90.1532C91.7367 30.2539 92.7263 29.8585 93.419 28.9685C93.7156 28.5732 94.2107 27.7822 94.2107 26.2991C94.2107 24.8161 93.7159 23.8271 92.7263 23.0364C92.1324 22.6411 91.3407 22.3444 90.0542 22.3444H85.7988V30.2539H85.8979ZM80.2575 34.9999V6.52538H98.862L97.2789 11.2711H85.8982V17.5986H90.5495C94.211 17.5986 96.1905 18.4886 97.477 19.576C98.4666 20.466 100.248 22.4431 100.248 26.2994C100.248 30.1552 98.4666 32.2316 96.8831 33.3192C95.1018 34.5056 93.2217 34.901 89.4609 34.901H80.2578V34.9999H80.2575ZM63.8298 34.9999V11.2711H55.6158V6.52538H78.5747L76.9915 11.2711H69.6686V34.9999H63.8298ZM40.8709 17.8953H44.0375C45.0274 17.8953 45.5219 17.8953 46.0167 17.7966C47.3033 17.4012 48.1938 16.2146 48.1938 14.6328C48.1938 12.7545 47.3033 11.8645 46.0167 11.4691C45.5219 11.2714 45.0271 11.1724 43.9385 11.1724H40.9697V17.8956H40.8709V17.8953ZM40.97 22.839V30.3529H44.9283C46.1161 30.3529 47.2048 30.2542 47.9962 29.5619C48.7877 28.8696 49.0846 27.8812 49.0846 26.6948C49.0846 25.8051 48.788 24.9154 48.3919 24.2231C47.6002 23.2341 46.5118 22.9377 44.7305 22.9377H40.97V22.839ZM50.0745 19.873C51.1629 20.367 52.1528 21.0593 52.7463 21.4547C54.4289 22.839 55.1216 24.6184 55.1216 26.9914C55.1216 30.8472 53.0433 33.7146 49.6785 34.6043C48.6889 34.9009 47.6002 34.9999 45.5219 34.9999H35.2302V6.52538H44.3348C46.2149 6.52538 47.5014 6.62436 48.5901 6.92074C51.8555 7.81073 54.0329 10.0845 54.0329 13.6439C54.0329 15.5223 53.3402 17.2033 52.2518 18.2909C51.8555 18.785 51.1629 19.3783 50.0745 19.873Z" fill="#263975"/>
<path d="M29.392 4.35012H5.24563L7.02696 0H31.1733L29.392 4.35012ZM28.5015 6.52545H4.3551L2.57377 10.8756H26.7204L28.5015 6.52545ZM25.9284 12.9519H1.78203L0.000976562 17.302H24.1474L25.9284 12.9519Z" fill="#009FDF"/>
</g>
<defs>
<clipPath id="clip0">
<rect width="162.791" height="35" fill="white"/>
</clipPath>
</defs>
</svg>
