<svg width="183" height="50" fill="none" xmlns="http://www.w3.org/2000/svg"><g clip-path="url(#clip0)" fill="#FF2A2A"><path d="M15.072.052c-1.73.317-3.006 1.466-3.848 3.493-.235.57-3.177 8.587-9.25 25.218-.68 1.855-.806 2.29-.725 2.452.063.145.299.28.715.444.335.126 1.575.606 2.743 1.058 1.647.643 2.163.806 2.308.742.136-.063.371-.597.924-2.108.407-1.113.932-2.543 1.158-3.185l.426-1.15 6.571.019 6.563.027 1.14 3.158c.879 2.416 1.195 3.185 1.331 3.24.145.063.815-.163 2.933-.987 1.62-.624 2.788-1.131 2.843-1.23.08-.118.018-.39-.281-1.222-.498-1.42-9.106-24.929-9.45-25.852-1.105-2.868-2.48-4.053-4.816-4.162-.462-.018-1.032 0-1.285.045zm3.285 14.541c1.195 3.592 2.146 6.551 2.119 6.578-.028.027-2.019.055-4.427.055-3.44 0-4.372-.027-4.372-.109 0-.262 4.372-13.202 4.436-13.13.036.037 1.05 3.014 2.244 6.606zm104.026 2.471c-.869.08-2.516.38-2.933.542l-.226.082-.027 5.682-.027 5.683-.245.452a5.157 5.157 0 01-.507.77l-.271.316.362.715c.353.697.362.706.642.651.408-.081 1.331-.524 1.648-.805.154-.127.389-.434.525-.688.48-.868.516-1.275.516-6.18v-4.497l.208-.117c.281-.154 2.345-.209 2.987-.073l.516.1v12.207h2.897l-.018-7.122-.027-7.121-.86-.208c-1.611-.38-3.567-.534-5.16-.39zm-68.053.099c-.271.045-.552.117-.633.163-.082.045-1.105 2.877-2.571 7.112-1.33 3.872-2.453 7.13-2.48 7.248l-.055.217h2.906l.416-1.34c.236-.732.435-1.384.453-1.447.036-.09.616-.109 2.689-.09l2.643.026.416 1.403.408 1.402 1.52.028c.833.009 1.512-.01 1.512-.046 0-.045-1.06-3.311-2.345-7.266l-2.344-7.193-.308-.1c-.434-.145-1.675-.217-2.227-.117zm.924 3.284c.036.163.425 1.593.869 3.158.452 1.575.814 2.878.814 2.905 0 .027-.85.054-1.882.054h-1.892l.787-2.696c.435-1.475.86-2.923.942-3.213.081-.28.18-.515.226-.515.045 0 .108.135.136.307zm35.538-1.077c0 1.222-.018 2.218-.037 2.218-.018 0-.19-.064-.38-.145-.534-.226-2.172-.208-2.923.036-1.847.597-2.752 2.081-2.879 4.732-.145 2.932.77 4.914 2.58 5.61.77.29 2.19.28 3.032-.036l.607-.226v3.782h2.625V31.56l.57.208c2.037.733 3.974.045 4.934-1.746.515-.96.678-1.765.678-3.366 0-1.846-.235-2.85-.914-3.837-.353-.516-1.204-1.104-1.9-1.33-.788-.253-2.409-.28-2.952-.054a2.55 2.55 0 01-.38.154c-.018 0-.036-.996-.036-2.217v-2.217h-2.625v2.217zm-.362 4.262l.362.145v5.855l-.38.108c-.209.055-.716.082-1.114.064-.651-.027-.778-.064-1.077-.29-.724-.552-1.077-2.027-.878-3.655.154-1.258.507-1.964 1.14-2.245.38-.172 1.503-.162 1.947.018zm5.223-.045c.805.308 1.213 1.276 1.222 2.932 0 1.158-.127 1.792-.498 2.407-.398.67-.815.896-1.648.896-.344 0-.787-.046-.968-.1l-.344-.09v-5.855l.344-.135c.389-.172 1.512-.2 1.892-.055zm-29.347-2.28a14.14 14.14 0 00-2.326.435l-.508.135-.036 3.547c-.027 3.457-.036 3.547-.235 3.99a3.672 3.672 0 01-.525.779l-.308.317.335.75c.344.742.344.742.643.697.443-.063 1.204-.443 1.593-.778.181-.163.435-.497.561-.733.416-.832.489-1.402.552-4.162l.055-2.597.407-.054a9.66 9.66 0 012.046 0l.416.063v8.207h2.716V21.877l-.788-.19c-1.665-.38-3.222-.506-4.598-.38zm38.471.009a12.93 12.93 0 00-1.358.18c-.923.182-.86.055-.633 1.159.172.85.217.968.371.941.09-.009.796-.045 1.548-.081 2.1-.082 2.344.063 2.444 1.402l.054.67-.534-.082c-.833-.117-2-.054-2.661.145-1.602.489-2.399 1.584-2.39 3.32 0 .743.027.879.29 1.422.814 1.655 2.788 2.18 4.978 1.33.389-.154.779-.335.869-.408.163-.117.208-.099.607.272.244.226.489.407.561.407.063 0 .489-.253.932-.57l.824-.561-.344-.615c-.462-.869-.534-1.34-.534-3.72 0-1.148-.045-2.388-.091-2.759-.217-1.674-1.131-2.37-3.213-2.48a13.473 13.473 0 00-1.72.028zm2.272 5.954c.073.036.118.497.136 1.267l.036 1.203-.353.09c-.199.055-.706.082-1.131.064-.634-.018-.833-.063-1.068-.235-.354-.254-.525-.778-.435-1.349.072-.488.344-.805.815-.977.38-.136 1.828-.18 2-.063zm38.236-5.954c-.706.09-1.322.29-1.991.642-.906.489-.887.408-.308 1.249.28.407.534.724.57.706.878-.47 1.376-.643 2.055-.679.842-.045 1.204.082 1.493.552.245.39.191 1.059-.108 1.394-.335.362-.724.48-1.575.48h-.77v1.9h.797c.978 0 1.358.099 1.702.46.226.236.262.345.262.806 0 .398-.045.597-.19.779-.353.479-.633.615-1.33.65-.752.037-1.467-.117-2.381-.524-.335-.154-.616-.262-.625-.253-.099.162-.697 1.62-.67 1.647.209.18.887.524 1.421.714 1.63.589 3.811.462 5.043-.298.434-.272 1.031-.95 1.24-1.42.235-.535.307-1.33.163-1.919-.163-.67-.525-1.113-1.177-1.439l-.552-.28.344-.181c.769-.39 1.131-1.014 1.186-2.063.036-.67.018-.797-.2-1.24-.507-1.032-1.566-1.602-3.177-1.72a7.82 7.82 0 00-1.222.037zm31.863.091a23.07 23.07 0 00-1.33.135l-.299.055v10.306h2.625v-8.225l.19-.055c.109-.036 1.041-.054 2.064-.036l1.865.037.018-.227c.009-.126.036-.579.045-1.004l.027-.787-.905-.1c-1.349-.145-3.132-.19-4.3-.1zm-102.541 5.04l.027 4.94.634.217c.986.326 2.082.507 3.213.507 1.639.009 2.661-.326 3.467-1.131 1.403-1.402 1.385-4.172-.054-5.456-.942-.85-2.689-1.131-4.381-.706l-.209.045v-3.366H74.59l.018 4.95zm4.87.552c.498.244.751.814.697 1.574-.073 1.113-.516 1.52-1.657 1.52a7.33 7.33 0 01-.932-.054l-.28-.064.018-1.492.027-1.503.226-.063c.47-.136 1.575-.09 1.9.081zm51.868-.299v5.203l1.475-.01h1.467l1.068-2.189c.579-1.203 1.24-2.597 1.457-3.095.507-1.158.706-1.583.77-1.583.027 0 .036 1.547.018 3.438l-.027 3.439h2.643V21.497h-2.87l-1.357 2.868a471.823 471.823 0 00-1.657 3.53c-.163.361-.326.66-.353.66-.027 0-.036-1.584-.018-3.529l.027-3.529h-2.643V26.7zm21.181 0v5.203l1.476-.01h1.466l1.068-2.189c.58-1.203 1.241-2.597 1.458-3.095.507-1.158.706-1.583.769-1.583.027 0 .036 1.547.018 3.438l-.027 3.439h2.643V21.497h-2.869l-1.358 2.868a457.223 457.223 0 00-1.656 3.53c-.163.361-.326.66-.354.66-.027 0-.036-1.584-.018-3.529l.028-3.529h-2.644V26.7zm11.678 0v5.203h2.625V27.65h3.168v4.253h2.716V21.497h-2.716v3.891h-3.168v-3.891h-2.625V26.7zm-50.284-1.593c-.408.1-.625.245-.933.588-.815.923-.271 2.407.978 2.688 1.158.262 2.263-.842 2-2-.199-.896-1.167-1.493-2.045-1.276zM.362 43.368C.018 43.494 0 43.62 0 46.67c0 2.85.01 2.977.181 3.15.181.18.299.18 15.886.18 15.588 0 15.706 0 15.887-.18.172-.173.18-.3.18-3.15 0-2.425-.026-3.004-.126-3.148-.127-.172-.407-.172-15.823-.19-8.627-.01-15.75.008-15.823.036z"/></g><defs><clipPath id="clip0"><path fill="#fff" d="M0 0h182.353v50H0z"/></clipPath></defs></svg>