<svg width="88" height="88" fill="none" xmlns="http://www.w3.org/2000/svg"><path d="M8.844 25.569h-.15v8.737h8.737V25.57H8.844zm9.844 11.25H7.438a1.257 1.257 0 01-1.257-1.257v-11.25c0-.693.563-1.256 1.256-1.256h11.25c.694 0 1.257.563 1.257 1.256v11.25c0 .694-.563 1.257-1.256 1.257zm-1.407 31.237h.15V59.32H8.694v8.737h8.587zm-9.843-11.25h11.25c.693 0 1.256.562 1.256 1.257v11.25c0 .694-.563 1.256-1.256 1.256H7.438a1.256 1.256 0 01-1.257-1.257v-11.25c0-.694.563-1.256 1.256-1.256zM23.056 8.994h30.638v2.512H23.056V8.994zm0 5.625h30.638v2.512H23.056V14.62zm0 11.25h30.638v2.512H23.056V25.87zm0 5.625h30.638v2.512H23.056v-2.512zM18.105 6.181h.062l.044-.044 2.295-2.294 1.776 1.776-2.294 2.295-.044.044v10.73c0 .693-.563 1.256-1.256 1.256H7.438a1.257 1.257 0 01-1.257-1.256V7.438c0-.694.563-1.257 1.256-1.257h10.668zM15.4 8.95l.256-.256H8.693v6.961l.257-.256 6.449-6.45zm1.882 8.481h.15V10.47l-.256.256-6.449 6.45-.256.255h6.812zm.823 22.5h.062l.044-.044 2.295-2.294 1.776 1.776-2.294 2.295-.044.044v10.73c0 .694-.563 1.256-1.256 1.256H7.438a1.256 1.256 0 01-1.257-1.256v-11.25c0-.694.563-1.257 1.256-1.257h10.668zM15.4 42.7l.256-.256H8.693v6.961l.257-.256 6.449-6.45zm1.882 8.481h.15V44.22l-.256.256-6.449 6.45-.256.255h6.812z" fill="#5AB772" stroke="#fff" stroke-width=".3"/><path d="M79.006 59.469v.15h7.181c.694 0 1.257.561 1.257 1.256v25.313c0 .694-.563 1.256-1.257 1.256H24.313a1.256 1.256 0 01-1.257-1.257v-9.993H1.813a1.256 1.256 0 01-1.257-1.257V1.814c0-.694.563-1.257 1.256-1.257h56.25c.694 0 1.257.563 1.257 1.256V37.12H77.75c.693 0 1.256.563 1.256 1.256V59.47zm-11.1 2.662h-.15v5.925h5.925v-5.925h-5.775zM50.881 59.47v.15h25.613V39.63h-8.738v7.182c0 .694-.563 1.256-1.256 1.256h-5.625a1.256 1.256 0 01-1.256-1.257v-7.178H50.88V59.47zm11.4-19.838h-.15v5.924h3.113v-5.925H62.28zm-39.375 34.05h.15V60.875c0-.695.563-1.256 1.256-1.256H48.37V50.88H23.056v-2.51H48.37v-3.113H23.056v-2.512H48.37v-4.37c0-.693.563-1.256 1.256-1.256h7.181V3.069H3.07V73.68h19.837zm14.063-11.55h-.15v5.924h5.925v-5.925h-5.775zm-11.25 0h-.15v22.799h28.425v-22.8h-8.738v7.182c0 .694-.563 1.256-1.256 1.256h-8.438a1.256 1.256 0 01-1.256-1.257v-7.179H25.72zm59.062 22.8h.15V62.131h-8.737v7.182c0 .694-.563 1.256-1.257 1.256H66.5a1.256 1.256 0 01-1.256-1.257v-7.179h-8.738v22.798h28.275z" fill="#5AB772" stroke="#fff" stroke-width=".3"/><path d="M76.494 79.306h5.325v2.513h-5.325v-2.513zm-8.438-25.312h5.325v2.512h-5.325v-2.512zm8.438 19.687h5.325v2.513h-5.325V73.68zm-30.938 5.625h5.325v2.513h-5.325v-2.513zm0-5.625h5.325v2.513h-5.325V73.68z" fill="#5AB772" stroke="#fff" stroke-width=".3"/></svg>