<svg width="88" height="88" fill="none" xmlns="http://www.w3.org/2000/svg"><path d="M81.125 4.125H6.875A4.13 4.13 0 002.75 8.25v71.5a4.13 4.13 0 004.125 4.125h74.25a4.13 4.13 0 004.125-4.125V8.25a4.13 4.13 0 00-4.125-4.125zm-74.25 2.75h74.25A1.376 1.376 0 0182.5 8.25v6.875h-77V8.25a1.377 1.377 0 011.375-1.375zm74.25 74.25H6.875A1.376 1.376 0 015.5 79.75V17.875h77V79.75a1.376 1.376 0 01-1.375 1.375z" fill="#015293"/><path d="M20.625 12.375a1.375 1.375 0 100-2.75 1.375 1.375 0 000 2.75zm-5.5 0a1.375 1.375 0 100-2.75 1.375 1.375 0 000 2.75zm-5.5 0a1.375 1.375 0 100-2.75 1.375 1.375 0 000 2.75zm27.5 13.75h13.75a1.375 1.375 0 000-2.75h-13.75a1.375 1.375 0 000 2.75zm23.375 2.75h-33a1.375 1.375 0 00-1.375 1.375v5.5a1.375 1.375 0 001.375 1.375h33a1.375 1.375 0 001.375-1.375v-5.5a1.375 1.375 0 00-1.375-1.375zm-1.375 5.5h-30.25v-2.75h30.25v2.75zm1.375 5.5h-33a1.375 1.375 0 00-1.375 1.375v5.5a1.375 1.375 0 001.375 1.375h33a1.375 1.375 0 001.375-1.375v-5.5a1.375 1.375 0 00-1.375-1.375zm-1.375 5.5h-30.25v-2.75h30.25v2.75zm1.375 5.5h-33a1.375 1.375 0 00-1.375 1.375v11a1.375 1.375 0 001.375 1.375h33a1.375 1.375 0 001.375-1.375v-11a1.375 1.375 0 00-1.375-1.375zm-1.375 11h-30.25v-8.25h30.25v8.25zm-12.375 5.5h-5.5a4.125 4.125 0 000 8.25h5.5a4.125 4.125 0 000-8.25zm0 5.5h-5.5a1.375 1.375 0 010-2.75h5.5a1.375 1.375 0 010 2.75z" fill="#015293"/></svg>