<svg width="94" height="89" fill="none" xmlns="http://www.w3.org/2000/svg"><mask id="a" fill="#fff"><path d="M1.536 38.7h8.389a22.455 22.455 0 002.13 5.123l-5.938 5.935a1.512 1.512 0 000 2.14l6.415 6.415c.59.59 1.548.59 2.138 0l5.938-5.938a22.469 22.469 0 005.122 2.13v8.388c0 .835.677 1.512 1.512 1.512h9.073c.835 0 1.512-.677 1.512-1.512v-8.389a22.469 22.469 0 005.121-2.129l5.938 5.938c.6.568 1.539.568 2.138 0l6.416-6.416a1.512 1.512 0 000-2.14l-5.938-5.934a22.484 22.484 0 002.13-5.124h8.388c.835 0 1.512-.676 1.512-1.512v-9.072c0-.835-.677-1.512-1.512-1.512h-8.389a22.491 22.491 0 00-2.13-5.123l5.938-5.935a1.512 1.512 0 000-2.14L51.024 6.99a1.513 1.513 0 00-2.138 0l-5.938 5.939a22.534 22.534 0 00-5.121-2.13V2.41c0-.835-.677-1.512-1.512-1.512h-9.073c-.835 0-1.512.677-1.512 1.512v8.39a22.534 22.534 0 00-5.122 2.129l-5.938-5.94a1.556 1.556 0 00-2.138 0l-6.416 6.416a1.513 1.513 0 000 2.14l5.939 5.935a22.493 22.493 0 00-2.13 5.123H1.536c-.835 0-1.512.677-1.512 1.512v9.072c0 .836.677 1.512 1.512 1.512zm1.512-9.073h8.06c.71 0 1.325-.495 1.477-1.189a19.456 19.456 0 012.65-6.372 1.512 1.512 0 00-.205-1.885l-5.706-5.707 4.277-4.278 5.705 5.707a1.512 1.512 0 001.887.205 19.485 19.485 0 016.373-2.65 1.514 1.514 0 001.188-1.477V3.92h6.048v8.06c0 .71.495 1.325 1.189 1.478a19.485 19.485 0 016.372 2.649 1.512 1.512 0 001.887-.205l5.705-5.707 4.277 4.279-5.706 5.704a1.512 1.512 0 00-.204 1.887 19.449 19.449 0 012.647 6.374 1.513 1.513 0 001.478 1.189h8.061v6.048h-8.061c-.71 0-1.325.494-1.478 1.188a19.43 19.43 0 01-2.647 6.37 1.513 1.513 0 00.204 1.887l5.707 5.705-4.278 4.28-5.705-5.708a1.513 1.513 0 00-1.887-.204 19.442 19.442 0 01-6.37 2.649 1.512 1.512 0 00-1.19 1.477v8.06h-6.049v-8.06c0-.71-.496-1.326-1.19-1.477a19.442 19.442 0 01-6.37-2.65 1.513 1.513 0 00-1.888.205l-5.705 5.707-4.276-4.278 5.705-5.705a1.512 1.512 0 00.204-1.887 19.463 19.463 0 01-2.649-6.374 1.511 1.511 0 00-1.477-1.187h-8.06v-6.048z"/></mask><path d="M1.536 38.7h8.389a22.455 22.455 0 002.13 5.123l-5.938 5.935a1.512 1.512 0 000 2.14l6.415 6.415c.59.59 1.548.59 2.138 0l5.938-5.938a22.469 22.469 0 005.122 2.13v8.388c0 .835.677 1.512 1.512 1.512h9.073c.835 0 1.512-.677 1.512-1.512v-8.389a22.469 22.469 0 005.121-2.129l5.938 5.938c.6.568 1.539.568 2.138 0l6.416-6.416a1.512 1.512 0 000-2.14l-5.938-5.934a22.484 22.484 0 002.13-5.124h8.388c.835 0 1.512-.676 1.512-1.512v-9.072c0-.835-.677-1.512-1.512-1.512h-8.389a22.491 22.491 0 00-2.13-5.123l5.938-5.935a1.512 1.512 0 000-2.14L51.024 6.99a1.513 1.513 0 00-2.138 0l-5.938 5.939a22.534 22.534 0 00-5.121-2.13V2.41c0-.835-.677-1.512-1.512-1.512h-9.073c-.835 0-1.512.677-1.512 1.512v8.39a22.534 22.534 0 00-5.122 2.129l-5.938-5.94a1.556 1.556 0 00-2.138 0l-6.416 6.416a1.513 1.513 0 000 2.14l5.939 5.935a22.493 22.493 0 00-2.13 5.123H1.536c-.835 0-1.512.677-1.512 1.512v9.072c0 .836.677 1.512 1.512 1.512zm1.512-9.073h8.06c.71 0 1.325-.495 1.477-1.189a19.456 19.456 0 012.65-6.372 1.512 1.512 0 00-.205-1.885l-5.706-5.707 4.277-4.278 5.705 5.707a1.512 1.512 0 001.887.205 19.485 19.485 0 016.373-2.65 1.514 1.514 0 001.188-1.477V3.92h6.048v8.06c0 .71.495 1.325 1.189 1.478a19.485 19.485 0 016.372 2.649 1.512 1.512 0 001.887-.205l5.705-5.707 4.277 4.279-5.706 5.704a1.512 1.512 0 00-.204 1.887 19.449 19.449 0 012.647 6.374 1.513 1.513 0 001.478 1.189h8.061v6.048h-8.061c-.71 0-1.325.494-1.478 1.188a19.43 19.43 0 01-2.647 6.37 1.513 1.513 0 00.204 1.887l5.707 5.705-4.278 4.28-5.705-5.708a1.513 1.513 0 00-1.887-.204 19.442 19.442 0 01-6.37 2.649 1.512 1.512 0 00-1.19 1.477v8.06h-6.049v-8.06c0-.71-.496-1.326-1.19-1.477a19.442 19.442 0 01-6.37-2.65 1.513 1.513 0 00-1.888.205l-5.705 5.707-4.276-4.278 5.705-5.705a1.512 1.512 0 00.204-1.887 19.463 19.463 0 01-2.649-6.374 1.511 1.511 0 00-1.477-1.187h-8.06v-6.048z" fill="#015293" stroke="#fff" stroke-width=".6" mask="url(#a)"/><path d="M31.778 23.428h0a9.232 9.232 0 00-9.222 9.223v0a9.223 9.223 0 109.222-9.223zm11.947 9.223c0 6.599-5.348 11.947-11.946 11.947-6.595-.007-11.94-5.352-11.947-11.947 0-6.598 5.348-11.947 11.946-11.947 6.599 0 11.947 5.349 11.947 11.947z" fill="#015293" stroke="#fff" stroke-width=".3"/><path d="M31.778 18.892h0c-7.595.009-13.75 6.164-13.758 13.759v0c0 7.599 6.16 13.759 13.758 13.759 7.6 0 13.76-6.16 13.76-13.759s-6.16-13.759-13.76-13.759zm16.483 13.759c0 9.104-7.38 16.483-16.483 16.483-9.099-.01-16.472-7.384-16.483-16.483 0-9.103 7.38-16.483 16.483-16.483 9.104 0 16.483 7.38 16.483 16.483zm37.803 37.802v.15h.15a7.42 7.42 0 017.41 7.411v3.024a7.42 7.42 0 01-7.41 7.41H7.584a7.419 7.419 0 01-7.41-7.41v-3.024a7.42 7.42 0 017.41-7.41h48.538V58.356c0-.752.61-1.362 1.362-1.362h7.71V44.748c0-.752.61-1.362 1.362-1.362h13.61c.752 0 1.361.61 1.361 1.362v12.247h3.175c.752 0 1.362.61 1.362 1.362v12.096zm-2.874.15h.15V59.72H72.454v10.884h10.734zM68.069 46.11h-.15v10.885h10.884V46.11H68.068zm-9.073 13.609h-.15v10.884H69.73V59.72H58.996zm27.218 26.005a4.686 4.686 0 004.686-4.686v-3.024a4.687 4.687 0 00-4.686-4.686H7.584a4.687 4.687 0 00-4.686 4.686v3.024a4.686 4.686 0 004.687 4.686h78.629z" fill="#015293" stroke="#fff" stroke-width=".3"/><path d="M42.513 79.526a4.387 4.387 0 118.773 0 4.387 4.387 0 01-8.773 0zm2.724 0a1.662 1.662 0 103.324 0 1.662 1.662 0 00-3.324 0zm-17.845 0a4.387 4.387 0 118.773.001 4.387 4.387 0 01-8.773-.001zm2.724 0a1.662 1.662 0 103.324 0 1.662 1.662 0 00-3.324 0zm27.518 0a4.387 4.387 0 118.773 0 4.387 4.387 0 01-8.773 0zm2.724 0a1.662 1.662 0 103.324 0 1.662 1.662 0 00-3.324 0zm-48.088 0a4.387 4.387 0 118.774.001 4.387 4.387 0 01-8.773-.001zm2.725 0a1.662 1.662 0 103.324 0 1.662 1.662 0 00-3.324 0zm57.76 0a4.387 4.387 0 118.773.001 4.387 4.387 0 01-8.773-.001zm2.724 0a1.662 1.662 0 103.324 0 1.662 1.662 0 00-3.324 0z" fill="#015293" stroke="#fff" stroke-width=".3"/></svg>