<svg width="79" height="79" fill="none" xmlns="http://www.w3.org/2000/svg"><path d="M68.601 66.735c-.54.582-1.092 1.118-1.667 1.677l-.377.367-.003.003c-1.082 1.032-2.171 2.106-3.193 3.308l-.005.007-.006.006c-1.753 1.874-3.831 2.762-6.525 2.762h-.005c-.246 0-.523 0-.785-.017 0 0 0 0 0 0l.023-.35 12.543-7.763zm0 0c.886-.921 1.371-1.883 1.369-2.875-.002-.995-.494-1.942-1.393-2.832 0 0 0 0 0 0l-9.187-9.186-.016-.017-.012-.011c-.543-.594-1.478-1.325-2.654-1.325-1.195 0-2.182.77-2.765 1.353l-5.702 5.702c-.277.277-1.055 1.048-2.287 1.048-.489 0-.97-.118-1.494-.38a.962.962 0 01-.071-.042c-.027-.017-.068-.043-.113-.067-.495-.305-1.069-.593-1.657-.887l-.01-.004c-.669-.335-1.354-.678-2.02-1.1h0c-5.316-3.362-10.14-7.753-14.721-13.397l-.012-.014-.013-.013-.002-.002c-2.51-3.19-4.154-5.856-5.32-8.677l-.045-.135c-.144-.459-.268-.99-.202-1.563.066-.566.32-1.203.984-1.867l.04-.04.003-.006a.706.706 0 00.032-.03c1.456-1.305 2.794-2.643 4.193-4.075.323-.312.641-.634.959-.955l.475-.48c.917-.916 1.428-1.85 1.428-2.831 0-.98-.51-1.915-1.428-2.832l-4.55-4.55c-.265-.273-.53-.542-.79-.808l-.008-.007a137.1 137.1 0 01-.784-.8 84.622 84.622 0 00-3.009-2.993l-.02-.02-.026-.026h0c-.555-.555-1.49-1.27-2.682-1.27-.968 0-1.916.474-2.773 1.28V10l-.008.008-5.686 5.685c-1.443 1.443-2.229 3.137-2.402 5.17v.001c-.256 3.12.326 6.407 1.888 10.588L68.6 66.735zM62.125 49.18h0l.005.005 9.153 9.187.002.002c1.627 1.61 2.464 3.508 2.464 5.47 0 1.947-.822 3.864-2.42 5.526v.001a65.273 65.273 0 01-2.157 2.14l-.002.001-.235.228c-.962.93-1.893 1.83-2.71 2.819l-.024.03-.001.003a.665.665 0 00-.05.059c-2.462 2.66-5.595 4-9.342 4-.322 0-.68-.017-1.03-.034-5.648-.363-10.715-2.488-14.541-4.3-9.991-4.83-18.739-11.685-26.01-20.368C9.228 46.737 5.216 40.019 2.53 32.776h0C1.435 29.82.024 25.345.417 20.556c.26-2.936 1.441-5.46 3.517-7.536h.001L9.603 7.3h.001v0h.001v-.001h.001v-.001h.001v-.001h.001v-.001h.001v-.001h.001v-.001h.001v-.001h.001v-.001h.001V7.29h.001v0h.001v-.001h.001v-.001h.001v-.001h.001v-.001h.001v-.001h.001v-.001h.001v-.001h.001v-.001h.001V7.28h.001v-.001h.001v-.001h.001v-.001h.001v-.001h.001v-.001h.001v-.001h.001v-.001h.001v-.001h.001v-.001h.001V7.27h.001c1.611-1.546 3.494-2.351 5.424-2.351 1.93 0 3.779.805 5.34 2.35h0l.008.008c1.076.993 2.12 2.053 3.119 3.085a66.76 66.76 0 001.555 1.588l.002.002 4.551 4.552c1.697 1.697 2.524 3.62 2.524 5.522 0 1.901-.827 3.825-2.524 5.521-.234.235-.468.473-.701.71l-.001.001c-.234.238-.466.474-.698.706l-.002.002-.358.363c-1.122 1.139-2.269 2.303-3.497 3.426l-.187.172.104.23c1.032 2.285 2.45 4.527 4.546 7.177h0l.003.003c4.322 5.31 8.835 9.422 13.806 12.58l.004.002c.497.309 1.076.598 1.669.895l.004.002.003.001.433.223c.28.144.56.288.844.44l.229.124.184-.184 5.269-5.252h0c1.63-1.63 3.511-2.466 5.455-2.466 1.958 0 3.822.851 5.383 2.477zm6.474 17.55l-.248-.24a7.02 7.02 0 00.223-.243.349.349 0 01.025.482z" stroke="#fff" stroke-width=".7"/><path d="M42.694 18.447h-.002c-1.033-.168-1.713-1.162-1.529-2.195a1.913 1.913 0 012.2-1.55c5.212.888 9.964 3.355 13.731 7.122 3.768 3.767 6.234 8.52 7.122 13.732a1.902 1.902 0 01-1.555 2.197l-.032.004a1.887 1.887 0 01-2.174-1.55h0a21.603 21.603 0 00-6.067-11.693c-3.218-3.219-7.252-5.321-11.694-6.067zm35.812 16.46v.003a1.86 1.86 0 01-1.571 2.164c-.12.015-.205.026-.302.026a1.887 1.887 0 01-1.872-1.575v-.001c-1.33-7.842-5.032-14.995-10.719-20.681h0c-5.686-5.67-12.838-9.389-20.68-10.718a1.912 1.912 0 01-1.565-2.198C41.982.894 42.957.197 43.975.38h.003c8.631 1.472 16.485 5.54 22.737 11.791 6.252 6.252 10.319 14.106 11.79 22.737z" fill="#015293" stroke="#fff" stroke-width=".7"/></svg>