<svg width="36" height="50" fill="none" xmlns="http://www.w3.org/2000/svg"><path d="M35.023 50H.977A.972.972 0 010 49.033V5.091c0-.532.435-.967.977-.967h8.966c.537 0 .977.43.977.967a.969.969 0 01-.977.967H1.954V48.07H34.05V6.058h-7.998a.972.972 0 01-.977-.967c0-.537.435-.967.977-.967h8.97c.538 0 .978.43.978.967v43.942c0 .532-.44.967-.977.967z" fill="#015293"/><path d="M26.052 10.172H9.943a.972.972 0 01-.977-.967V.967C8.966.435 9.4 0 9.943 0h1.031c1.436 0 2.61 1.16 2.61 2.582l.043.072h8.75l.045-.072C22.422 1.16 23.594 0 25.03 0h1.021c.538 0 .977.43.977.967v8.238c0 .532-.44.967-.977.967zM10.915 8.238h14.16V1.934h-.049a.651.651 0 00-.655.648 2 2 0 01-1.998 2.006h-8.746a1.99 1.99 0 01-1.998-1.977.658.658 0 00-.655-.677h-.054v6.304h-.005zm17.179 14.538H14.98a.972.972 0 01-.977-.967c0-.532.435-.967.977-.967h13.114c.538 0 .978.43.978.967 0 .532-.44.967-.978.967zm0 4.187H14.98a.972.972 0 01-.977-.967c0-.532.435-.967.977-.967h13.114c.538 0 .978.43.978.967 0 .532-.44.967-.978.967zm0 4.187H14.98a.972.972 0 01-.977-.967c0-.532.435-.967.977-.967h13.114c.538 0 .978.43.978.967 0 .532-.44.967-.978.967zm0 4.187H14.98a.972.972 0 01-.977-.967c0-.532.435-.967.977-.967h13.114c.538 0 .978.43.978.967 0 .532-.44.967-.978.967zM8.692 24.957a.997.997 0 01-.645-.242l-1.632-1.417a.958.958 0 01-.088-1.363.982.982 0 011.378-.087l.885.769 2.188-2.558a.983.983 0 011.378-.111.96.96 0 01.113 1.363l-2.83 3.307a.98.98 0 01-.674.339h-.073zm0 5.709a.996.996 0 01-.645-.241l-1.632-1.417a.958.958 0 01-.088-1.363.982.982 0 011.378-.087l.885.768 2.188-2.557a.983.983 0 011.378-.111.96.96 0 01.113 1.363l-2.83 3.307a.98.98 0 01-.674.338h-.073zm0 5.599a.996.996 0 01-.645-.242l-1.632-1.416a.958.958 0 01-.088-1.364.982.982 0 011.378-.087l.885.769 2.188-2.558a.983.983 0 011.378-.11.96.96 0 01.113 1.363l-2.83 3.306a.98.98 0 01-.674.339h-.073z" fill="#015293"/></svg>