<svg width="49" height="45" fill="none" xmlns="http://www.w3.org/2000/svg"><path d="M44.833 3.853a.97.97 0 00-.402-.118V.945A.945.945 0 0043.484 0H39.18a.948.948 0 00-.946.944v2.791a.94.94 0 00-.89.94V37.71c0 .476.36.873.824.935a746.09 746.09 0 012.223 4.188v1.228a.945.945 0 001.892 0v-1.228c.312-.6 1.405-2.644 2.228-4.184a.943.943 0 00.814-.935V5.946c1.125.453 1.788 1.369 1.788 2.62v10.225a.945.945 0 001.892 0V8.566C49 6.125 47.34 4.316 44.833 3.853zm-5.6 1.767h4.195V24.5h-4.196V5.62zm3.306-3.731v1.842H40.12V1.889h2.417zm.562 35.37c-.804 1.503-1.371 2.56-1.769 3.307-.397-.751-.96-1.81-1.76-3.306a.945.945 0 00-.335-.359V26.384h4.195v10.522a.917.917 0 00-.33.354zM22.208 17.251H9.518a.945.945 0 110-1.889h12.69c.52 0 .946.425.946.944a.942.942 0 01-.946.945zm-8.098-4.297H9.512a.945.945 0 110-1.889h4.598a.945.945 0 110 1.889zm0 20.764H9.512a.945.945 0 110-1.889h4.598a.945.945 0 110 1.889zm6.268-12.321H9.518a.945.945 0 110-1.889h10.86c.52 0 .946.425.946.945a.948.948 0 01-.946.944zm1.83 4.09H9.518a.945.945 0 110-1.889h12.69c.52 0 .946.425.946.945a.942.942 0 01-.946.944z" fill="#015293"/><path d="M34.866 12.217a.936.936 0 00-.373-.75L23.377.367a1.195 1.195 0 00-.2-.146l-.056-.028a.966.966 0 00-.222-.08h-.01a.816.816 0 00-.184-.02H.946A.948.948 0 000 1.04v42.922c0 .52.421.945.946.945h32.96c.52 0 .946-.425.946-.945V12.345c.005-.043.014-.086.014-.128zm-3.24-.944h-7.975V3.315l.038.038 7.937 7.92zM1.892 43.017V1.979h19.872v10.238c0 .52.42.944.946.944h10.255v29.856H1.892z" fill="#015293"/></svg>