<svg width="12" height="12" fill="none" xmlns="http://www.w3.org/2000/svg"><path d="M11.64 7.315l-1.103-.863a4.013 4.013 0 000-.906l1.104-.863a.54.54 0 00.13-.689L10.624 2.01a.542.542 0 00-.663-.238l-1.3.523a4.453 4.453 0 00-.781-.454L7.68.46A.531.531 0 007.149 0h-2.3a.53.53 0 00-.528.456l-.2 1.385a4.618 4.618 0 00-.78.454l-1.303-.524a.531.531 0 00-.659.234L.231 3.992a.537.537 0 00.13.693l1.103.862a3.976 3.976 0 000 .906L.36 7.316a.54.54 0 00-.131.69l1.147 1.983a.542.542 0 00.664.24l1.3-.524c.244.178.506.33.781.454l.2 1.38a.53.53 0 00.528.461h2.3a.53.53 0 00.53-.456l.2-1.385a4.63 4.63 0 00.78-.454l1.304.524a.532.532 0 00.659-.234L11.774 8a.54.54 0 00-.134-.685zM5.999 8.5a2.5 2.5 0 110-5 2.5 2.5 0 010 5z" fill="#C9D1EA"/></svg>