<svg width="91" height="84" fill="none" xmlns="http://www.w3.org/2000/svg"><circle cx="66" cy="59" r="19" fill="#fff"/><g clip-path="url(#clip0)" fill="#015293"><path d="M72.436 22.422h-8.27v-2.865c0-1.172-.79-2.16-1.867-2.465V6.56a5.5 5.5 0 00-5.493-5.493h-7.458a5.5 5.5 0 00-5.493 5.493v10.532a2.566 2.566 0 00-1.868 2.465v2.865h-8.975v-2.865c0-1.172-.791-2.16-1.867-2.465V6.56a5.5 5.5 0 00-5.494-5.493h-7.457A5.5 5.5 0 0012.7 6.56v10.532a2.566 2.566 0 00-1.867 2.465v2.866h-8.27A2.567 2.567 0 000 24.986V71.37a2.566 2.566 0 002.563 2.563h69.873A2.566 2.566 0 0075 71.37V24.986a2.566 2.566 0 00-2.564-2.564zM49.348 3.264h7.458a3.3 3.3 0 013.296 3.296v10.434h-14.05V6.56a3.3 3.3 0 013.296-3.296zm-5.163 16.293c0-.202.164-.366.366-.366h17.052c.202 0 .367.164.367.366v2.865h-4.318a1.099 1.099 0 100 2.198h14.784c.202 0 .367.164.367.366v31.718h-38.31V52.3H66.52c.607 0 1.098-.492 1.098-1.099V29.99c0-.607-.491-1.098-1.098-1.098H34.492V24.62h18.206a1.099 1.099 0 100-2.198h-8.514v-2.865zm-9.693 11.53h30.93v19.017h-30.93V31.088zM18.194 3.265h7.457a3.3 3.3 0 013.296 3.296v10.434h-14.05V6.56a3.3 3.3 0 013.296-3.296zM13.03 19.557c0-.202.164-.366.366-.366h17.053c.202 0 .366.164.366.366v2.866H13.03v-2.866zM2.197 24.986c0-.202.164-.366.366-.366h29.732v5.076c0 .05.005.099.011.147a1.09 1.09 0 00-.01.146v21.213c0 .05.004.099.01.147-.006.048-.01.097-.01.147v5.208h-30.1V24.986zm70.24 46.75H2.563a.367.367 0 01-.366-.367V58.901h70.606v12.468a.367.367 0 01-.367.367z"/><path d="M23.744 28.891H10.748a2.566 2.566 0 00-2.564 2.564v5.959a1.098 1.098 0 102.197 0V35.38h13.73v10.43H10.38v-3.443a1.098 1.098 0 10-2.197 0v7.37a2.567 2.567 0 002.564 2.563h12.996a2.567 2.567 0 002.564-2.564V31.455a2.566 2.566 0 00-2.564-2.564zm-13.363 4.293v-1.73c0-.201.165-.366.367-.366h12.996c.202 0 .367.165.367.367v1.729H10.38zm13.363 16.92H10.748a.367.367 0 01-.367-.367v-1.729h13.73v1.73a.367.367 0 01-.367.365zm43.167 11.548H44.758a1.098 1.098 0 100 2.198h5.824v2.848H21.625V63.85h18.178a1.098 1.098 0 100-2.198H8.09a2.567 2.567 0 00-2.564 2.564v2.116a2.566 2.566 0 002.564 2.564h58.82a2.566 2.566 0 002.564-2.564v-2.116a2.567 2.567 0 00-2.564-2.564zm-7.42 2.198v2.848h-2.257V63.85h2.257zm-6.712 0h2.258v2.848h-2.258V63.85zM7.724 66.332v-2.116c0-.202.165-.366.367-.366h11.337v2.848H8.09a.366.366 0 01-.367-.366zm59.554 0a.367.367 0 01-.366.367H61.69v-2.85h5.222c.202 0 .366.165.366.367v2.116zm-5.99-30.315l-4.405 2.867-1.462-1.873a1.099 1.099 0 00-1.54-.191l-10.016 7.774-2.15-1.968a1.099 1.099 0 00-1.311-.128l-2.333 1.416a1.098 1.098 0 101.14 1.878l1.629-.989 2.225 2.038a1.097 1.097 0 001.415.057l9.883-7.67 1.409 1.803c.351.449.987.555 1.465.244l5.25-3.416a1.099 1.099 0 00-1.2-1.842zM38.64 39.742h1.084a1.098 1.098 0 100-2.198H38.64a1.099 1.099 0 100 2.198zm0-3.549h1.084a1.099 1.099 0 100-2.198H38.64a1.099 1.099 0 100 2.198zm5.01 3.549h1.084a1.098 1.098 0 100-2.198h-1.083a1.099 1.099 0 100 2.198zm0-3.549h1.084a1.098 1.098 0 100-2.198h-1.083a1.099 1.099 0 100 2.198z"/></g><path d="M74.406 39.493h0a1.83 1.83 0 001.793.743l-1.793-.743zm0 0a4.87 4.87 0 00-6.5-1.293h0m6.5 1.293l-6.5-1.293m0 0a1.83 1.83 0 01-1.94 0h0m1.94 0h-1.94m0 0a4.87 4.87 0 00-6.5 1.293h0m6.5-1.293l-6.5 1.293m0 0a1.829 1.829 0 01-1.793.742 4.87 4.87 0 00-5.51 3.682 1.83 1.83 0 01-1.372 1.372h0m8.675-5.796l-8.675 5.796m0 0a4.87 4.87 0 00-3.682 5.51m3.682-5.51l-3.682 5.51m0 0a1.83 1.83 0 01-.742 1.794 4.87 4.87 0 00-1.293 6.5m2.035-8.293l-2.035 8.292m0 0s0 0 0 0l.552-.342-.552.342zm0 1.941a4.87 4.87 0 001.293 6.5 1.83 1.83 0 01.742 1.793 4.87 4.87 0 003.682 5.51l.149-.633-5.866-13.17zm0 0l.552.342-.552-.342s0 0 0 0zm41.162 1.587h0a4.834 4.834 0 010-5.114h0a1.85 1.85 0 00-.49-2.467h0a4.834 4.834 0 01-1.957-4.724c.154-.95-.46-1.87-1.398-2.091a4.833 4.833 0 01-3.616-3.616 1.851 1.851 0 00-2.09-1.397 4.833 4.833 0 01-4.725-1.958 1.851 1.851 0 00-2.467-.49h0a4.833 4.833 0 01-5.114 0 1.851 1.851 0 00-2.466.49h0a4.834 4.834 0 01-4.725 1.958L86.236 62.62zm0 0a1.85 1.85 0 01-.49 2.466h0m.49-2.466l-.49 2.466m2.5-3.71l.553-.343a4.87 4.87 0 01-1.293 6.5 1.83 1.83 0 00-.743 1.793 4.87 4.87 0 01-3.681 5.51 1.83 1.83 0 00-1.373 1.372s0 0 0 0l-.632-.149 7.17-14.684zm0 0l.553-.343a1.83 1.83 0 010-1.94 4.87 4.87 0 00-1.293-6.5 1.83 1.83 0 01-.743-1.793 4.87 4.87 0 00-3.681-5.51 1.83 1.83 0 01-1.373-1.373 4.87 4.87 0 00-5.51-3.681l12.047 21.14zm-2.5 3.71a4.834 4.834 0 00-1.957 4.725h0m1.957-4.725l-1.957 4.725m0 0a1.85 1.85 0 01-1.398 2.09 4.833 4.833 0 00-3.616 3.617 1.851 1.851 0 01-2.09 1.397 4.833 4.833 0 00-4.725 1.957l.527.38M83.79 69.81l-11.302 9.44m0 0l-.527-.379a1.85 1.85 0 01-2.467.49h0m2.994-.11l-2.994.11m0 0a4.834 4.834 0 00-5.114 0h0m5.114 0H64.38m0 0a1.85 1.85 0 01-2.466-.49 4.83 4.83 0 00-4.725-1.957h0m7.191 2.448l-7.19-2.448m0 0a1.853 1.853 0 01-2.092-1.397 4.833 4.833 0 00-3.616-3.616 1.851 1.851 0 01-1.397-2.091l-.642-.105m7.746 7.21l-7.746-7.21m0 0l.642.105a4.834 4.834 0 00-1.957-4.725h0m1.315 4.62l-1.315-4.62m0 0a1.851 1.851 0 01-.49-2.466h0m.49 2.466l-.49-2.466m0 0a4.833 4.833 0 000-5.114h0m0 5.114v-5.114m0 0a1.851 1.851 0 01.49-2.467h0m-.49 2.467l.49-2.467m0 0a4.834 4.834 0 001.957-4.724h0m-1.957 4.724l1.957-4.724m0 0c-.155-.95.46-1.87 1.397-2.091m-1.397 2.09l1.397-2.09m0 0a4.833 4.833 0 003.616-3.616m-3.616 3.616l3.616-3.616m0 0a1.851 1.851 0 012.091-1.397l-2.09 1.397z" fill="#5AB772" stroke="#fff" stroke-width="1.3"/><path d="M79.282 52.58a1.507 1.507 0 112.576-1.566 17.42 17.42 0 012.526 9.049c0 9.621-7.826 17.448-17.448 17.448-9.621 0-17.448-7.827-17.448-17.448 0-9.622 7.827-17.448 17.448-17.448 3.189 0 6.31.868 9.026 2.513l3.32 7.451zm0 0a14.406 14.406 0 012.088 7.483c0 7.958-6.475 14.434-14.434 14.434-7.958 0-14.434-6.476-14.434-14.434 0-7.959 6.476-14.434 14.434-14.434 2.64 0 5.221.718 7.465 2.077l.334-.552-.334.552a1.507 1.507 0 002.07-.509m2.81 5.382l-2.81-5.382m0 0a1.507 1.507 0 00-.51-2.07l.51 2.07z" fill="#5AB772" stroke="#fff" stroke-width="1.3"/><path d="M59.257 56.635v2.136l-2.058-2.98h0a1.507 1.507 0 00-2.747.857v6.843a1.507 1.507 0 103.014 0v-2.009l1.88 2.723h0c.401.579 1.108.861 1.8.645h0c.707-.221 1.125-.876 1.125-1.59v-6.625a1.507 1.507 0 00-3.014 0zm7.81 1.507a1.507 1.507 0 100-3.014h-2.889c-.832 0-1.507.674-1.507 1.507v6.856c0 .832.675 1.507 1.507 1.507h2.89a1.507 1.507 0 100-3.014h-1.383v-.414h1.17a1.507 1.507 0 000-3.014h-1.17v-.414h1.382zm5.189-.317l.502-1.623.6.185-.6-.185a1.507 1.507 0 011.886-.994l-2.388 2.617zm0 0l-.293-1.483h0a1.507 1.507 0 00-1.771-1.186h0a1.507 1.507 0 00-1.186 1.771h0l1.336 6.754h0c.014.072.033.142.058.21v.001a1.662 1.662 0 001.566 1.106h.007v0h.004a1.662 1.662 0 001.562-1.127v-.001h0l.014-.041.644-2.08.641 2.083.001.002a1.533 1.533 0 00.02.06l.612-.219m-3.215-5.85l5.793 5.854m-2.578-.004c.143.403.526.673.953.673h.007a1.012 1.012 0 00.98-.795m-1.94.122a.879.879 0 01-.011-.035m.011.035l-.011-.035m1.952-.087l.637.127h0m-.637-.127l.637.127m-.637-.127l1.34-6.738a.857.857 0 00-1.68-.335l-.528 2.65-.403-1.306m1.908 5.855l1.341-6.738h0a1.507 1.507 0 00-1.184-1.772h0a1.507 1.507 0 00-1.772 1.184h0l-.293 1.47m0 0l-.503-1.632-.195-.636-.155.052c-.171-.18-.39-.32-.644-.4l1.497 2.617zm-3.217 5.839c-.139.408-.52.683-.951.686h-.007l.958-.686zm0 0a.584.584 0 00.007-.022l.926-2.993-.933 3.015zm2.536-.022l-.922-2.993.922 2.993zm2.62-7.833h0zm1.251-8.139h0l-.001-.001a1.51 1.51 0 00-2.129 0h0l-.002.001a1.513 1.513 0 000 2.131h0l.002.002a1.509 1.509 0 002.13-.002l-.46-.46.46.46c.281-.281.442-.667.442-1.065 0-.398-.16-.785-.442-1.066z" fill="#5AB772" stroke="#fff" stroke-width="1.3"/><defs><clipPath id="clip0"><path fill="#fff" d="M0 0h75v75H0z"/></clipPath></defs></svg>