<svg width="80" height="80" fill="none" xmlns="http://www.w3.org/2000/svg"><path d="M78.828 48.53c.647 0 1.172-.524 1.172-1.171V22.45c0-3.23-2.628-5.86-5.86-5.86H61.85V5.86c0-3.232-2.63-5.86-5.86-5.86H24.01a5.866 5.866 0 00-5.86 5.86v10.73H5.86A5.866 5.866 0 000 22.45v39.787a5.866 5.866 0 005.86 5.86h28.4v4.872h-1.48a5.397 5.397 0 00-5.39 5.39c0 .905.735 1.641 1.64 1.641h21.938c.905 0 1.64-.736 1.64-1.64a5.397 5.397 0 00-5.39-5.391h-1.48v-4.872H74.14a5.866 5.866 0 005.86-5.86v-9.41a1.172 1.172 0 10-2.344 0v9.41a3.52 3.52 0 01-3.515 3.516H5.859a3.52 3.52 0 01-3.515-3.516V22.45a3.52 3.52 0 013.515-3.516h12.292v2.344H6.328c-.905 0-1.64.736-1.64 1.64v39.32a1.17 1.17 0 001.171 1.171h67.813c.905 0 1.64-.736 1.64-1.64v-38.85c0-.905-.735-1.64-1.64-1.64H61.849v-2.345h12.292a3.52 3.52 0 013.515 3.516v24.909c0 .647.525 1.172 1.172 1.172zM36.605 68.098h6.79v4.872h-6.79v-4.872zm10.614 7.216a3.052 3.052 0 012.965 2.343H29.816a3.052 3.052 0 012.965-2.344h14.438zM18.151 61.066H7.03V23.622h11.12v37.444zm41.355 0H20.494V5.859a3.52 3.52 0 013.516-3.515h31.98a3.52 3.52 0 013.516 3.515v55.207zm13.463-37.444v37.444h-11.12V23.622h11.12zM53.493 42.344H26.507a1.172 1.172 0 100 2.343h26.986a1.172 1.172 0 100-2.343zM40 7.03c-3.26 0-6.361 1.032-8.97 2.985a1.172 1.172 0 001.404 1.876A12.533 12.533 0 0140 9.375c6.979 0 12.656 5.678 12.656 12.656 0 6.979-5.677 12.657-12.656 12.657-6.979 0-12.656-5.678-12.656-12.657 0-2.262.606-4.483 1.754-6.423a1.172 1.172 0 10-2.017-1.193A14.964 14.964 0 0025 22.031c0 8.271 6.729 15 15 15s15-6.729 15-15c0-8.27-6.729-15-15-15zm-5.4 21.032c1.634 1.648 4.435 1.66 6.077 0l7.319-7.319c1.404-1.393 1.329-3.767-.123-5.088-1.389-1.264-3.54-1.193-4.896.163l-5.338 5.338-.663-.662c-1.349-1.362-3.62-1.353-4.972 0a3.52 3.52 0 000 4.972l2.597 2.596zm-.938-5.91a1.182 1.182 0 011.657-.001l1.16 1.16a1.654 1.654 0 002.32 0l5.835-5.835c.462-.462 1.208-.501 1.662-.088.488.444.512 1.233.042 1.698l-7.318 7.318a1.94 1.94 0 01-1.381.57 1.94 1.94 0 01-1.381-.57l-2.596-2.596a1.173 1.173 0 010-1.657zm19.831 27.222H26.507a1.172 1.172 0 100 2.344h26.986a1.172 1.172 0 100-2.344z" fill="#015293"/><path d="M53.493 42.344H26.507a1.172 1.172 0 100 2.343h26.986a1.172 1.172 0 100-2.343zM40 7.03c-3.26 0-6.361 1.032-8.97 2.985a1.172 1.172 0 001.404 1.876A12.533 12.533 0 0140 9.375c6.979 0 12.656 5.678 12.656 12.656 0 6.979-5.677 12.657-12.656 12.657-6.979 0-12.656-5.678-12.656-12.657 0-2.262.606-4.483 1.754-6.423a1.172 1.172 0 10-2.017-1.193A14.964 14.964 0 0025 22.031c0 8.271 6.729 15 15 15s15-6.729 15-15c0-8.27-6.729-15-15-15zm-5.4 21.032c1.634 1.648 4.435 1.66 6.077 0l7.319-7.319c1.404-1.393 1.329-3.767-.123-5.088-1.389-1.264-3.54-1.193-4.896.163l-5.338 5.338-.663-.662c-1.349-1.362-3.62-1.353-4.972 0a3.52 3.52 0 000 4.972l2.597 2.596zm-.938-5.91a1.182 1.182 0 011.657-.001l1.16 1.16a1.654 1.654 0 002.32 0l5.835-5.835c.462-.462 1.208-.501 1.662-.088.488.444.512 1.233.042 1.698l-7.318 7.318a1.94 1.94 0 01-1.381.57 1.94 1.94 0 01-1.381-.57l-2.596-2.596a1.173 1.173 0 010-1.657zm19.831 27.222H26.507a1.172 1.172 0 100 2.344h26.986a1.172 1.172 0 100-2.344z" fill="#5AB772"/></svg>