<svg width="80" height="80" fill="none" xmlns="http://www.w3.org/2000/svg"><path d="M51.247 7.923H26.904a1.172 1.172 0 100 2.344h24.343a1.172 1.172 0 100-2.344zm0 6.86H26.904a1.172 1.172 0 100 2.344h24.343a1.172 1.172 0 100-2.344z" fill="#5AB772"/><path d="M73.676 40.506H66.72v-3.272c0-4.312-3.508-7.82-7.82-7.82H45.724c-4.312 0-7.82 3.508-7.82 7.82v3.272h-6.957a6.324 6.324 0 00-6.324 6.324v26.8a6.332 6.332 0 006.324 6.325h42.73A6.331 6.331 0 0080 73.63v-5.078a1.172 1.172 0 10-2.344 0v5.078a3.985 3.985 0 01-3.98 3.98h-42.73a3.985 3.985 0 01-3.98-3.98V57.021a10.496 10.496 0 007.749 3.892v1.79a4.288 4.288 0 004.282 4.282 4.288 4.288 0 004.283-4.283v-1.781h18.061v1.781a4.288 4.288 0 004.283 4.283 4.287 4.287 0 004.283-4.283v-1.79a10.496 10.496 0 007.749-3.89v6.052a1.172 1.172 0 102.343 0V46.83a6.324 6.324 0 00-6.324-6.324zm-33.428-3.272a5.482 5.482 0 015.476-5.476H58.9a5.482 5.482 0 015.476 5.476v3.272h-2.44v-3.272a3.039 3.039 0 00-3.036-3.035H45.724a3.039 3.039 0 00-3.035 3.035v3.272h-2.44v-3.272zm4.785 3.272v-3.272c0-.381.31-.692.691-.692H58.9c.382 0 .692.31.692.692v3.272h-14.56zm-4.096 22.196c0 1.07-.87 1.939-1.939 1.939s-1.938-.87-1.938-1.939v-4.19c0-1.068.87-1.938 1.938-1.938 1.07 0 1.94.87 1.94 1.939v4.19zm26.627 0a1.94 1.94 0 01-1.939 1.939 1.94 1.94 0 01-1.939-1.939v-4.189c0-1.07.87-1.939 1.94-1.939 1.068 0 1.938.87 1.938 1.939v4.19zm2.344-4.135v-.054a4.288 4.288 0 00-4.283-4.283 4.288 4.288 0 00-4.283 4.283v.064h-18.06v-.064a4.288 4.288 0 00-4.284-4.283 4.288 4.288 0 00-4.282 4.283v.054c-4.31-.217-7.75-3.791-7.75-8.154V46.83a3.98 3.98 0 013.981-3.98h42.73a3.98 3.98 0 013.98 3.98v3.583c0 4.363-3.44 7.937-7.75 8.154z" fill="#015293"/><path d="M23.112 77.61H5.795a3.455 3.455 0 01-3.451-3.45V17.87c0-.253.027-.502.08-.743h10.665a4.043 4.043 0 004.038-4.038V2.424c.241-.053.49-.08.743-.08h39.733a3.455 3.455 0 013.45 3.451v20.107a1.172 1.172 0 102.345 0V5.795C63.398 2.6 60.798 0 57.602 0H17.87a5.757 5.757 0 00-4.098 1.697L1.697 13.772A5.757 5.757 0 000 17.87v56.29c0 3.195 2.6 5.795 5.795 5.795h17.317a1.172 1.172 0 100-2.344zm-8.33-73.609v9.087c0 .935-.76 1.695-1.694 1.695H4.001L14.783 4z" fill="#5AB772"/></svg>