<svg width="163" height="35" fill="none" xmlns="http://www.w3.org/2000/svg"><g clip-path="url(#clip0)"><path d="M107.966 15.918l.099-1.582c.198.099.495.099.792.099 1.385 0 1.484-2.076 1.484-8.009h6.532v9.492h-1.979v-7.91h-2.771c0 5.142-.198 8.009-2.771 8.009-.495.099-.99 0-1.386-.1zm11.183-9.393h1.88v3.46c0 .99-.099 2.77-.099 3.659l4.058-7.119h2.078v9.492h-1.88v-3.46c0-.99.099-2.769.099-3.659l-4.058 7.119h-2.078V6.525zm9.5 9.294l.198-1.68c.693.395 1.583.494 2.375.494.891 0 1.979-.198 1.979-1.385 0-1.285-1.386-1.384-2.276-1.384h-.693V10.38h.495c.891 0 2.375-.198 2.375-1.384 0-.99-.99-1.187-1.781-1.187-.693 0-1.683.198-2.276.396l-.198-1.483c.791-.198 1.88-.396 2.771-.396 1.88 0 3.364.692 3.364 2.472 0 .989-.692 1.78-1.781 2.076 1.188.198 1.979 1.187 1.979 2.274 0 2.076-1.583 2.867-3.76 2.867-.99.199-1.979 0-2.771-.197zm8.412-9.294h1.88v3.46c0 .99-.099 2.77-.099 3.659l4.058-7.119h2.078v9.492h-1.88v-3.46c0-.99.098-2.769.098-3.659l-4.057 7.119h-2.078V6.525zm10.292 0h1.979v3.758h3.76V6.525h1.98v9.492h-1.98v-4.153h-3.76v4.153h-1.979V6.525zm9.896 0h5.542v1.582h-3.662v7.91h-1.979V6.525h.099zM85.898 30.254h4.255c1.584 0 2.573-.396 3.266-1.286.297-.395.792-1.186.792-2.669s-.495-2.472-1.485-3.263c-.594-.395-1.385-.692-2.672-.692H85.8v7.91h.099zM80.258 35V6.525h18.604l-1.583 4.746h-11.38V17.6h4.65c3.662 0 5.641.89 6.928 1.977.99.89 2.771 2.867 2.771 6.723s-1.781 5.933-3.365 7.02c-1.781 1.187-3.661 1.582-7.422 1.582h-9.203V35zM63.83 35V11.27h-8.214V6.525h22.959l-1.584 4.746H69.67V35h-5.84zM40.87 17.895h3.168c.99 0 1.484 0 1.979-.098 1.286-.396 2.177-1.582 2.177-3.164 0-1.878-.89-2.768-2.177-3.164-.495-.198-.99-.297-2.079-.297H40.97v6.724h-.1zm.1 4.944v7.514h3.958c1.188 0 2.277-.099 3.068-.791.792-.692 1.089-1.68 1.089-2.867 0-.89-.297-1.78-.693-2.472-.792-.989-1.88-1.285-3.662-1.285h-3.76v-.099zm9.105-2.966c1.088.494 2.078 1.186 2.671 1.582 1.683 1.384 2.376 3.163 2.376 5.536 0 3.856-2.079 6.724-5.444 7.613-.99.297-2.078.396-4.156.396H35.23V6.525h9.105c1.88 0 3.166.1 4.255.396 3.265.89 5.443 3.163 5.443 6.723 0 1.878-.693 3.56-1.781 4.647-.397.494-1.09 1.087-2.178 1.582z" fill="#263975"/><path d="M29.392 4.35H5.246L7.027 0h24.146l-1.781 4.35zm-.89 2.175H4.355l-1.781 4.35H26.72l1.782-4.35zm-2.574 6.427H1.782l-1.781 4.35h24.146l1.781-4.35z" fill="#009FDF"/></g><defs><clipPath id="clip0"><path fill="#fff" d="M0 0h162.791v35H0z"/></clipPath></defs></svg>