<svg width="316" height="389" fill="none" xmlns="http://www.w3.org/2000/svg"><path fill-rule="evenodd" clip-rule="evenodd" d="M208.872 350.755l178.212 28.401-30.444-175.292h-64.083c-4.307 44.513-39.35 80.123-83.685 85.348v61.543z" fill="#FF9D00"/><path fill-rule="evenodd" clip-rule="evenodd" d="M358.093 177.736c11.325-10.886 37.801-36.626 36.929-38.803l-17.521-40.932c-1.258-2.806-60.888-.92-60.888-.92l-19.264-18.917s.726-59.318-2.129-60.48L253.643.365c-2.807-1.258-43.028 41.803-43.028 41.803l-27.008-.145S141.498-1.185 138.74.025L97.308 16.62c-2.904 1.016.097 59.947.097 59.947L78.384 95.243s-60.26-1.548-61.373 1.113L.022 136.949c-1.161 2.806 43.126 43.109 43.126 43.109l.145 26.514S.168 247.504 1.329 250.214l17.376 40.98c1.259 2.758 60.985.774 60.985.774l19.312 19.015s-.87 59.318 1.936 60.576l41.625 17.272c2.372 1.016 30.928-29.126 40.173-38.9v-61.156c-45.787-7.064-80.781-46.641-80.781-94.298 0-52.738 42.738-95.557 95.495-95.557 47.046 0 86.202 34.013 94.091 78.816h66.552z" fill="#074C84"/><path d="M79.69 291.968l-.033-.999h-.01l-.033.001-.127.005-.5.016-1.895.058a1611.3 1611.3 0 01-6.779.187c-5.616.142-13.116.304-20.653.38-7.541.075-15.107.064-20.86-.137-2.88-.1-5.283-.248-6.994-.453-.86-.102-1.51-.216-1.948-.334a2.883 2.883 0 01-.324-.104L2.342 250.041c.029-.066.073-.156.139-.274.216-.384.584-.918 1.108-1.594 1.042-1.344 2.608-3.141 4.543-5.244 3.864-4.202 9.133-9.559 14.448-14.843a1382.52 1382.52 0 0114.687-14.356c2.01-1.938 3.69-3.547 4.866-4.671l1.365-1.302.36-.342.092-.088.024-.022.005-.006.002-.001-.106-.112.106.112.314-.298-.002-.433-.145-26.514-.003-.439-.324-.295-.673.739c.673-.739.673-.739.672-.74l-.001-.001-.006-.005-.024-.022-.095-.086-.37-.337-1.401-1.283a1546.837 1546.837 0 01-4.998-4.601c-4.132-3.82-9.627-8.942-15.085-14.15-5.46-5.211-10.874-10.499-14.846-14.655-1.99-2.081-3.6-3.861-4.672-5.197-.54-.672-.919-1.203-1.142-1.587a2.88 2.88 0 01-.144-.277L17.84 96.966c.07-.027.169-.06.303-.095.434-.117 1.084-.23 1.945-.334 1.713-.208 4.126-.364 7.022-.479 5.783-.228 13.403-.284 21.001-.257 7.596.028 15.158.138 20.821.241a1622.125 1622.125 0 018.75.184l.504.012.129.003.032.001h.01l.027-1-.026 1 .424.011.302-.297 19.022-18.675.32-.316-.022-.449-.999.051.999-.051v-.01l-.002-.032-.007-.126-.024-.492-.09-1.87c-.077-1.612-.182-3.917-.3-6.685-.236-5.538-.52-12.93-.714-20.352-.193-7.426-.295-14.868-.169-20.511.063-2.826.184-5.174.374-6.836.096-.837.206-1.46.321-1.87.033-.117.063-.203.087-.264L138.92 1.03c.07.028.169.074.302.146.395.215.943.582 1.637 1.105 1.381 1.04 3.227 2.606 5.389 4.54 4.318 3.866 9.828 9.14 15.261 14.463a1394.77 1394.77 0 0114.766 14.709c1.994 2.014 3.649 3.697 4.805 4.875l1.34 1.368.352.36.09.092.023.024.005.005.002.002.716-.697-.716.697.292.3.419.002 27.008.146.437.002.299-.32-.731-.682.731.682.001-.002.006-.005.022-.024.086-.092.336-.359a1381.203 1381.203 0 015.871-6.22 1290 1290 0 0114.122-14.653c5.201-5.302 10.478-10.553 14.626-14.396 2.076-1.924 3.852-3.479 5.184-4.508.67-.518 1.198-.879 1.579-1.088.119-.065.21-.108.274-.134l41.19 17.16c.031.07.07.172.115.318.129.427.259 1.066.384 1.916.247 1.689.451 4.066.617 6.92.332 5.701.509 13.206.596 20.69.088 7.48.087 14.925.063 20.5-.012 2.789-.029 5.109-.043 6.732l-.018 1.883-.006.495-.001.127v.032l-.001.008v.002l1 .013-1-.013-.005.427.305.3 19.263 18.917.305.3.428-.014-.032-1 .032 1h.01l.032-.001.128-.004.498-.016 1.893-.055c1.632-.046 3.964-.108 6.768-.175a1351.95 1351.95 0 0120.619-.341c7.529-.06 15.082-.033 20.826.183 2.876.109 5.274.264 6.982.476.858.106 1.507.223 1.942.344.149.04.255.078.327.107l17.337 40.503a1.35 1.35 0 01-.033.074c-.113.235-.32.575-.639 1.024-.633.891-1.612 2.087-2.874 3.524-2.518 2.867-6.083 6.613-10.043 10.644-7.781 7.921-17.038 16.896-22.728 22.368h-65.313c-8.306-44.864-47.678-78.816-94.927-78.816-53.31 0-96.495 43.268-96.495 96.557 0 47.863 34.93 87.659 80.781 95.152v59.904c-4.714 4.984-13.957 14.735-22.372 23.189-4.293 4.312-8.358 8.274-11.492 11.091-1.57 1.411-2.886 2.516-3.869 3.231-.496.36-.874.598-1.139.727a1.948 1.948 0 01-.118.054l-41.217-17.104a2.757 2.757 0 01-.115-.332c-.128-.434-.254-1.079-.375-1.934-.238-1.699-.433-4.085-.589-6.947-.312-5.714-.466-13.228-.532-20.718a1347.14 1347.14 0 01-.008-20.512 1493.7 1493.7 0 01.083-8.615l.007-.496.002-.127v-.042l-1-.015 1 .015.007-.428-.305-.3-19.312-19.014-.306-.301-.429.014.033.999zm21.884 78.846l.01.014c.001.002-.003-.002-.01-.014zm41.383 17.098l-.011-.004.011.004zM376.78 98.654a.06.06 0 01-.015-.01l.015.01zm-82.191-80.23l.01.015-.01-.014zM253.568 1.33s-.005.002-.016.003a.073.073 0 01.016-.003zM138.804.993c-.001 0 .005 0 .019.004a.082.082 0 01-.019-.004zM97.935 17.355l-.008.013a.072.072 0 01.008-.013zm-80.222 79.67l.018-.011a.085.085 0 01-.018.011zM.99 136.992l.004.018a.067.067 0 01-.004-.018zm1.307 113.177s0-.006.004-.019a.103.103 0 01-.004.019zm17.12 40.363l.016.01-.016-.01z" stroke="#fff" stroke-opacity=".3" stroke-width="2"/></svg>