<svg width="316" height="389" viewBox="0 0 316 389" fill="none" xmlns="http://www.w3.org/2000/svg">
<path fill-rule="evenodd" clip-rule="evenodd" d="M208.872 350.755L387.084 379.156L356.64 203.864H292.557C288.25 248.377 253.207 283.987 208.872 289.212V350.755Z" fill="#FF9D00"/>
<path fill-rule="evenodd" clip-rule="evenodd" d="M358.093 177.736C369.418 166.85 395.894 141.11 395.022 138.933L377.501 98.0007C376.243 95.1945 316.613 97.0814 316.613 97.0814L297.349 78.1636C297.349 78.1636 298.075 18.846 295.22 17.6848L253.643 0.363613C250.836 -0.894347 210.615 42.1666 210.615 42.1666L183.607 42.0215C183.607 42.0215 141.498 -1.18465 138.74 0.0249312L97.3083 16.6203C94.4043 17.6364 97.4051 76.567 97.4051 76.567L78.3836 95.2428C78.3836 95.2428 18.1244 93.6946 17.0112 96.3557L0.0224584 136.949C-1.13916 139.755 43.1477 180.058 43.1477 180.058L43.2929 206.572C43.2929 206.572 0.167661 247.504 1.32928 250.214L18.7052 291.194C19.9636 293.952 79.6904 291.968 79.6904 291.968L99.0024 310.983C99.0024 310.983 98.1311 370.301 100.938 371.559L142.563 388.831C144.935 389.847 173.491 359.705 182.736 349.931V288.775C136.949 281.711 101.955 242.134 101.955 194.477C101.955 141.739 144.693 98.92 197.45 98.92C244.496 98.92 283.652 132.933 291.541 177.736H358.093Z" fill="#015293"/>
<path d="M79.6904 291.968C79.6572 290.969 79.657 290.969 79.6566 290.969L79.6546 290.969L79.6465 290.969L79.6143 290.97L79.4866 290.975L78.9877 290.991C78.5505 291.004 77.9089 291.024 77.0917 291.049C75.4573 291.098 73.1208 291.164 70.313 291.236C64.6969 291.378 57.1972 291.54 49.6597 291.616C42.1189 291.691 34.5532 291.68 28.8 291.479C25.9195 291.379 23.5168 291.231 21.8057 291.026C20.9454 290.924 20.2954 290.81 19.8585 290.692C19.7122 290.653 19.6068 290.617 19.5344 290.588L2.34219 250.041C2.3707 249.975 2.41488 249.885 2.48095 249.767C2.69698 249.383 3.06544 248.849 3.5894 248.173C4.63105 246.829 6.19743 245.032 8.13208 242.929C11.9961 238.727 17.265 233.37 22.5804 228.086C27.8936 222.805 33.244 217.608 37.2667 213.73C39.2779 211.792 40.9569 210.183 42.1329 209.059C42.721 208.498 43.1832 208.057 43.4984 207.757L43.8582 207.415L43.9503 207.327L43.9736 207.305L43.9794 207.299L43.9809 207.298C43.981 207.298 43.9811 207.298 43.8753 207.186L43.9813 207.298L44.2952 207L44.2929 206.567L44.1477 180.053L44.1453 179.614L43.8207 179.319L43.1477 180.058C43.8207 179.319 43.8206 179.319 43.8203 179.318L43.8188 179.317L43.8128 179.312L43.7889 179.29L43.6943 179.204L43.3248 178.867C43.0012 178.571 42.5265 178.137 41.9226 177.584C40.7148 176.477 38.9905 174.893 36.9249 172.983C32.7934 169.163 27.2979 164.041 21.8398 158.833C16.3793 153.622 10.9658 148.334 6.99362 144.178C5.00478 142.097 3.39408 140.317 2.32193 138.981C1.78261 138.309 1.40325 137.778 1.18043 137.394C1.11143 137.275 1.06552 137.184 1.03606 137.117L17.8399 96.9657C17.9096 96.9391 18.0085 96.9066 18.143 96.8705C18.5772 96.754 19.2265 96.6409 20.0881 96.5366C21.8013 96.3292 24.2141 96.1726 27.1097 96.0584C32.8934 95.8302 40.5128 95.7741 48.1113 95.8013C55.7066 95.8285 63.2685 95.9388 68.9324 96.0423C71.7641 96.0941 74.1209 96.1441 75.7696 96.1813C76.594 96.1998 77.2413 96.2151 77.6824 96.2258L78.1857 96.2382L78.3146 96.2414L78.3471 96.2422L78.3552 96.2424L78.3572 96.2425C78.3577 96.2425 78.3579 96.2425 78.3836 95.2428L78.3579 96.2425L78.7817 96.2534L79.0842 95.9564L98.1057 77.2805L98.4267 76.9654L98.4038 76.5161L97.4051 76.567C98.4038 76.5161 98.4038 76.5159 98.4038 76.5155L98.4037 76.5135L98.4033 76.5056L98.4017 76.4738L98.3954 76.3478L98.3709 75.8557C98.3497 75.4244 98.3189 74.7915 98.2807 73.9855C98.2044 72.3735 98.0986 70.0691 97.9807 67.3006C97.7449 61.7631 97.4608 54.371 97.2674 46.9486C97.0739 39.5227 96.9716 32.0807 97.0981 26.438C97.1614 23.6124 97.2817 21.2638 97.4722 19.6018C97.5681 18.7651 97.6776 18.1426 97.7933 17.7326C97.8265 17.6149 97.8564 17.5288 97.8805 17.4684L138.919 1.03012C138.989 1.05816 139.088 1.10407 139.221 1.17584C139.616 1.3907 140.164 1.75819 140.858 2.28108C142.239 3.32075 144.085 4.88663 146.247 6.82174C150.565 10.6867 156.075 15.9614 161.508 21.284C166.939 26.6042 172.285 31.9633 176.274 35.9929C178.268 38.0075 179.923 39.6895 181.079 40.8676C181.657 41.4567 182.11 41.9198 182.419 42.2356L182.771 42.596L182.861 42.6884L182.884 42.7117L182.889 42.7175L182.891 42.7189C182.891 42.7193 182.891 42.7194 183.607 42.0215L182.891 42.7194L183.183 43.0192L183.602 43.0214L210.61 43.1666L211.047 43.1689L211.346 42.8492L210.615 42.1666C211.346 42.8492 211.346 42.849 211.346 42.8487L211.347 42.8473L211.353 42.8415L211.375 42.8183L211.461 42.7263L211.797 42.3671C212.092 42.0525 212.525 41.591 213.077 41.0039C214.181 39.8299 215.762 38.1539 217.668 36.1466C221.481 32.1315 226.592 26.7924 231.79 21.4937C236.991 16.1924 242.268 10.9415 246.416 7.09811C248.492 5.17361 250.268 3.61915 251.6 2.59006C252.27 2.07226 252.798 1.71135 253.179 1.50244C253.298 1.43683 253.389 1.39432 253.453 1.36781L294.643 18.528C294.674 18.5972 294.713 18.7004 294.758 18.8463C294.887 19.2731 295.017 19.912 295.142 20.7615C295.389 22.4508 295.593 24.8285 295.759 27.6826C296.091 33.3831 296.268 40.8879 296.355 48.3713C296.443 55.8514 296.442 63.2967 296.418 68.8729C296.406 71.6607 296.389 73.9808 296.375 75.6038C296.368 76.4152 296.361 77.0524 296.357 77.4865L296.351 77.982L296.35 78.1088L296.35 78.1408L296.349 78.1488V78.1507C296.349 78.1512 296.349 78.1514 297.349 78.1636L296.349 78.1514L296.344 78.5781L296.649 78.8771L315.912 97.7949L316.217 98.0944L316.645 98.0809L316.613 97.0814C316.645 98.0809 316.645 98.0809 316.645 98.0809L316.647 98.0808L316.655 98.0806L316.687 98.0796L316.815 98.0756L317.313 98.0604C317.749 98.0473 318.39 98.0284 319.206 98.0054C320.838 97.9593 323.17 97.8966 325.974 97.8301C331.581 97.6971 339.068 97.5491 346.593 97.4887C354.122 97.4282 361.675 97.4556 367.419 97.6725C370.295 97.781 372.693 97.9363 374.401 98.1479C375.259 98.2543 375.908 98.3708 376.343 98.4915C376.492 98.5328 376.598 98.5698 376.67 98.5994L394.007 139.102C393.998 139.124 393.987 139.149 393.974 139.176C393.861 139.411 393.654 139.751 393.335 140.2C392.702 141.091 391.723 142.287 390.461 143.724C387.943 146.591 384.378 150.337 380.418 154.368C372.637 162.289 363.38 171.264 357.69 176.736H292.377C284.071 131.872 244.699 97.92 197.45 97.92C144.14 97.92 100.955 141.188 100.955 194.477C100.955 242.34 135.885 282.136 181.736 289.629V349.533C177.022 354.517 167.779 364.268 159.364 372.722C155.071 377.034 151.006 380.996 147.872 383.813C146.302 385.224 144.986 386.329 144.003 387.044C143.507 387.404 143.129 387.642 142.864 387.771C142.817 387.794 142.778 387.812 142.746 387.825L101.529 370.721C101.497 370.648 101.458 370.541 101.414 370.389C101.286 369.955 101.16 369.31 101.039 368.455C100.801 366.756 100.606 364.37 100.45 361.508C100.138 355.794 99.9841 348.28 99.9176 340.79C99.8511 333.304 99.8723 325.856 99.9101 320.278C99.929 317.489 99.952 315.169 99.9704 313.546C99.9795 312.734 99.9875 312.097 99.9932 311.663L99.9999 311.167L100.002 311.04L100.002 311.008L100.002 311L100.002 310.998C100.002 310.998 100.002 310.998 99.0024 310.983L100.002 310.998L100.009 310.57L99.704 310.27L80.392 291.256L80.0862 290.955L79.6572 290.969L79.6904 291.968ZM101.574 370.814C101.58 370.822 101.583 370.827 101.584 370.828C101.585 370.83 101.581 370.826 101.574 370.814ZM142.957 387.912L142.946 387.908C142.95 387.909 142.953 387.911 142.957 387.912ZM376.78 98.6537C376.78 98.6541 376.774 98.651 376.765 98.6439C376.775 98.6499 376.78 98.6533 376.78 98.6537ZM294.589 18.4246C294.59 18.4249 294.593 18.4293 294.599 18.4391C294.591 18.4297 294.588 18.4243 294.589 18.4246ZM253.568 1.32992C253.568 1.33029 253.563 1.33175 253.552 1.33322C253.563 1.33027 253.569 1.32955 253.568 1.32992ZM138.804 0.99291C138.803 0.992455 138.809 0.993273 138.823 0.996728C138.811 0.995092 138.804 0.993365 138.804 0.99291ZM97.9354 17.3549C97.9355 17.3553 97.9328 17.36 97.927 17.3679C97.9324 17.3585 97.9354 17.3545 97.9354 17.3549ZM17.7126 97.025C17.7122 97.0248 17.7177 97.0208 17.7311 97.0136C17.7199 97.0216 17.7131 97.0253 17.7126 97.025ZM0.991044 136.992C0.991473 136.993 0.99325 136.999 0.99512 137.01C0.991548 136.998 0.990616 136.992 0.991044 136.992ZM2.2976 250.169C2.29712 250.169 2.29806 250.163 2.3018 250.15C2.29993 250.162 2.29807 250.168 2.2976 250.169ZM19.4183 290.532C19.4187 290.532 19.4245 290.535 19.4342 290.542C19.4227 290.536 19.4179 290.533 19.4183 290.532Z" stroke="white" stroke-opacity="0.3" stroke-width="2"/>
</svg>
